<?xml version="1.0" encoding="UTF-8" standalone="no"?>
<!-- Created with Inkscape (http://www.inkscape.org/) -->
<svg xmlns:dc="http://purl.org/dc/elements/1.1/" xmlns:cc="http://creativecommons.org/ns#" xmlns:rdf="http://www.w3.org/1999/02/22-rdf-syntax-ns#" xmlns:svg="http://www.w3.org/2000/svg" xmlns="http://www.w3.org/2000/svg" xmlns:sodipodi="http://sodipodi.sourceforge.net/DTD/sodipodi-0.dtd" xmlns:inkscape="http://www.inkscape.org/namespaces/inkscape" width="423.43188" height="296.61987" id="svg2" version="1.0" inkscape:version="0.46" sodipodi:docname="cheese shop.svg" inkscape:output_extension="org.inkscape.output.svg.inkscape" sodipodi:version="0.32">
  <defs id="defs4">
    <inkscape:perspective sodipodi:type="inkscape:persp3d" inkscape:vp_x="0 : 526.18109 : 1" inkscape:vp_y="0 : 1000 : 0" inkscape:vp_z="744.09448 : 526.18109 : 1" inkscape:persp3d-origin="372.04724 : 350.78739 : 1" id="perspective10"/>
    <inkscape:perspective id="perspective2824" inkscape:persp3d-origin="0.5 : 0.33333333 : 1" inkscape:vp_z="1 : 0.5 : 1" inkscape:vp_y="0 : 1000 : 0" inkscape:vp_x="0 : 0.5 : 1" sodipodi:type="inkscape:persp3d"/>
  </defs>
  <sodipodi:namedview id="base" pagecolor="#ffffff" bordercolor="#666666" borderopacity="1.0" inkscape:pageopacity="0.0" inkscape:pageshadow="2" inkscape:zoom="1.4" inkscape:cx="101.28216" inkscape:cy="55.810344" inkscape:document-units="px" inkscape:current-layer="layer1" showgrid="false" inkscape:window-width="1152" inkscape:window-height="808" inkscape:window-x="-4" inkscape:window-y="-4" inkscape:window-maximized="1"/>
  <g inkscape:label="Layer 1" inkscape:groupmode="layer" id="layer1" transform="translate(68.92952,-322.93903)">
    <path transform="translate(-81.428573,313.21933)" id="path2383" d="M 120.69382,304.93715 C 120.26467,303.29608 119.33145,303.15443 111.67587,303.56836 C 106.15195,303.86703 102.90058,303.64816 102.46817,302.9485 C 101.44951,301.30027 102.28956,300.95219 107.85429,300.71671 C 112.22665,300.53168 112.89418,300.24416 112.42027,298.75 C 111.96106,297.30215 112.49377,297 115.50594,297 C 118.37563,297 119.07818,296.64462 118.82332,295.32192 C 118.44093,293.33725 113.82343,291.86397 111.86802,293.10273 C 110.78673,293.78773 110.77437,293.97258 111.80902,293.98469 C 112.52898,293.99269 112.83992,294.45 112.5,295 C 112.16008,295.55 111.06362,296 110.06343,296 C 109.06323,296 107.67976,296.68094 106.98904,297.5132 C 106.29833,298.34546 105.23073,298.92715 104.6166,298.80584 C 102.28198,298.34469 98,300.10056 98,301.51905 C 98,303.31875 96.333722,303.489 95.739635,301.75 C 95.402998,300.7646 94.629048,300.75204 92.083417,301.6907 C 86.355034,303.80283 83.222727,300.13031 88.75,297.78238 L 91.5,296.6142 L 88.733045,296.23907 C 84.055278,295.60482 86.797552,294 92.559017,294 C 95.708153,294 98,293.55569 98,292.94519 C 98,292.23731 94.404317,292.06545 87.067567,292.42267 C 81.054729,292.71543 75.767229,293.01838 75.317567,293.0959 C 73.218314,293.4578 72,292.87173 72,291.5 C 72,290.34314 73.296296,290 77.666667,290 C 80.783333,290 82.995828,289.6625 82.583321,289.25 C 82.170814,288.8375 77.070832,288.5 71.250027,288.5 C 63.374489,288.5 60.554192,288.16237 60.22683,287.18037 C 59.874063,286.12217 62.630992,285.9016 74.143457,286.06698 C 91.454206,286.31565 92,286.28118 92,284.9392 C 92,284.21519 85.332724,283.97788 71,284.19176 C 55.461691,284.42363 50,284.20076 50,283.3359 C 50,282.69282 50.556596,281.98113 51.23688,281.75437 C 51.917163,281.52761 63.389665,281.50901 76.731328,281.71307 L 100.9889,282.08403 L 100.8279,277.97542 C 100.67499,274.0729 100.53732,273.90111 98.083456,274.55068 C 93.26613,275.82588 72.529546,277.65027 67,277.28537 C 60.776667,276.87469 52.947363,275.37883 48.5,273.75078 C 42.147417,271.42527 40.258917,266.61758 43.050605,259.87785 C 45.265765,254.52998 58.999981,249.71369 70.998434,250.07715 C 75.484506,250.21304 77.420536,249.91572 77.243664,249.11805 C 76.827989,247.2434 79.219011,233.60197 80.181178,232.35873 C 80.666974,231.73102 83.074944,230.91595 85.532222,230.54746 C 89.4181,229.96472 90,229.55983 90,227.43873 C 90,226.03301 89.416008,225 88.62132,225 C 86.741419,225 84.63616,219.58579 85.37359,216.64764 C 85.703672,215.33248 87.805587,212.60148 90.044513,210.57875 C 93.801146,207.18486 94.117334,206.49973 94.141823,201.70053 C 94.157633,198.60226 95.144931,194.04284 96.584179,190.42154 C 97.912881,187.07839 99,183.96382 99,183.50028 C 99,183.03674 99.667944,181.91941 100.48432,181.01733 C 101.6747,179.70197 101.74705,178.79012 100.84967,176.41268 C 99.911108,173.92615 100.07423,172.77482 101.86144,169.2716 C 103.74845,165.57275 103.81387,164.99522 102.43331,164.22261 C 101.57593,163.7428 100.76855,162.70893 100.63912,161.92511 C 100.5097,161.1413 99.962789,159.6 99.423758,158.5 C 98.382923,156.37597 98.432665,152.27619 99.554297,147.74082 C 100.16217,145.28287 99.98258,145.00994 97.909319,145.24082 C 94.900307,145.57591 94.057386,142.47976 96.951576,141.72291 C 98.704533,141.26451 99,140.3898 99,135.65872 C 99,128.39844 100.22943,125.44984 104.08875,123.4541 C 108.20934,121.32327 115.03503,122.2651 118.76874,125.47969 C 121.2591,127.62381 121.49595,128.43402 121.45403,134.66561 C 121.41733,140.12442 121.76955,141.76301 123.20403,142.8067 C 125.56756,144.52635 125.48746,146 123.03045,146 C 121.42856,146 121.08499,146.64068 121.18993,149.43213 C 121.26093,151.31981 120.54838,154.04032 119.60656,155.47772 C 117.65119,158.46198 118.26337,161.77959 121.14346,163.8067 C 122.16456,164.52539 123,165.55611 123,166.0972 C 123,166.63828 123.95247,168.36927 125.1166,169.94384 C 128.50362,174.52503 131.19917,189.21865 130.12592,197.25 C 129.26613,203.68396 129.86652,212.20053 131.12505,211.42272 C 131.63374,211.10833 131.75862,208.66109 131.40283,205.97902 C 131.04733,203.29911 131.11619,199.84501 131.55585,198.30323 C 132.29335,195.71704 132.41204,195.88712 133.0889,200.5 C 133.4927,203.25193 133.35561,208.07882 132.78401,211.23562 C 132.07037,215.17678 132.06767,217.83611 132.77501,219.73562 C 133.69858,222.21453 135.60323,228.50837 139.51271,242 C 140.22989,244.475 140.85845,248.55743 140.90951,251.07207 C 140.99941,255.5007 140.86551,255.71248 136.64146,257.82207 C 134.24298,259.01993 131.76738,260 131.14012,260 C 129.72433,260 129.72566,260.20726 131.16382,263.6849 C 131.8041,265.23321 133.0416,268.525 133.91382,271 C 136.50011,278.3388 141.05466,277.54274 146.62394,268.7785 C 147.92461,266.73167 150.2865,264.38592 151.87259,263.56572 C 154.56153,262.17521 155.11465,262.25297 160.05838,264.71654 C 165.25809,267.30767 165.53495,267.33659 174.41144,266.21617 C 183.1129,265.11785 183.65638,265.1665 188.4811,267.47576 C 191.24132,268.79689 194.32804,271.1428 195.34048,272.6889 L 197.18128,275.5 L 247.59048,275.72117 L 297.99968,275.94235 L 298.14924,269.72117 C 298.23144,266.29953 298.34399,259.57553 298.39924,254.77896 L 298.49968,246.05792 L 277.49968,245.46897 C 249.47394,244.68297 251.09869,244.7138 245.99968,244.87131 C 243.52468,244.94781 239.24968,244.97121 236.49968,244.92341 C 232.22726,244.84911 171.86569,244.77327 151.92241,244.81708 C 145.87433,244.83038 141.8399,243.82643 143.05567,242.61066 C 143.65279,242.01354 147.88482,241.95688 204.49968,241.78802 C 228.69968,241.71582 251.64968,241.62903 255.49968,241.59511 C 259.34968,241.56121 271.42688,241.63841 282.33791,241.76671 L 302.17647,242 L 301.55339,259.18952 C 301.2107,268.64375 300.48302,276.918 299.93631,277.57674 C 299.20207,278.46145 299.93031,278.90043 302.72115,279.25652 C 304.79952,279.52165 306.79249,279.4599 307.14998,279.11929 C 308.22874,278.09146 309.12646,233.67325 309.21346,177.02076 C 309.25866,147.60719 309.64759,122.40719 310.07783,121.02076 C 310.50806,119.63434 310.85144,128.625 310.84088,141 C 310.83028,153.375 310.84154,181.05 310.86578,202.5 C 310.89008,223.95 310.75588,248.925 310.56764,258 C 310.20646,275.41297 310.66882,282.15385 312.06899,279.88833 C 312.90029,278.54327 313.34636,241.02633 313.30718,175.75 C 313.29408,153.95248 313.66055,139 314.20784,139 C 314.71534,139 315.06826,142.2625 314.99211,146.25 C 314.54954,169.42327 315.08771,194.06384 316.02369,193.48534 C 316.69387,193.07115 316.86654,186.3386 316.52369,173.99048 C 316.23565,163.61629 315.9387,150.03694 315.8638,143.81415 C 315.7889,137.59137 315.5326,133.5125 315.29425,134.75 C 315.05589,135.9875 314.55468,136.99881 314.18043,136.99735 C 313.20984,136.99335 313.43079,83.210437 314.41869,79 C 316.31328,70.925282 320.62748,63.472885 326.12747,58.774092 C 333.76393,52.250066 339.17998,50.605538 350.76741,51.292427 C 362.68244,51.998734 371.58979,56.032665 376.61899,63 C 378.4055,65.475 379.89985,67.95 379.93975,68.5 C 379.97965,69.05 380.64414,70.711082 381.41638,72.191294 C 382.76344,74.7733 385.44385,96.729465 385.29959,104 C 384.8712,125.58957 385.68817,262.91041 386.28734,270.02498 C 386.40429,271.41372 387.48251,273.7988 388.68337,275.32517 C 389.88424,276.85153 391.00924,278.51234 391.18337,279.01587 C 391.50947,279.95883 403.41182,281.15665 410.49998,280.95985 C 430.88254,280.39393 430.55269,280.36445 433.33049,283 C 437.05794,286.53657 436.77568,288.00014 432.49998,287.30629 C 430.2285,286.93768 428.99998,287.13525 428.99998,287.86916 C 428.99998,288.49112 429.47654,289 430.059,289 C 430.64146,289 430.8772,289.38965 430.58286,289.86589 C 430.28853,290.34213 428.79947,290.55751 427.27385,290.34451 C 424.79337,289.9982 424.72714,290.05786 426.64765,290.90854 C 434.15716,294.23484 428.10072,295.69924 404.23075,296.32879 C 396.38267,296.53578 389.74063,296.92602 389.47065,297.196 C 389.20067,297.46597 395.80948,297.98248 404.1569,298.34378 C 412.50431,298.70508 419.55885,299.22554 419.83366,299.50035 C 420.95962,300.62631 418.94004,301.0359 412.39795,301.00838 C 408.60407,300.99238 404.59998,300.98808 403.49998,300.99838 C 402.39998,301.00908 395.76248,301.00338 388.74998,300.98528 C 379.08255,300.96068 375.99628,301.26065 375.98467,302.22617 C 375.97367,303.14017 375.7125,303.09361 375.05923,302.06118 C 374.34317,300.9295 370.66841,300.55235 357.82455,300.29232 C 312.83704,299.38153 258.71338,300.01649 231.49998,301.77432 C 221.78,302.40218 184.06309,302.49926 177.99998,301.91202 C 177.17498,301.83212 174.47498,301.97702 171.99998,302.2341 C 169.52498,302.49115 161.19998,302.35077 153.49998,301.92215 C 135.12726,300.89944 124.99998,301.64832 124.99998,304.02965 C 124.99998,306.4966 121.30524,307.27485 120.6938,304.9367 L 120.69382,304.93715 z M 120,300 C 120,298.74708 118.93876,298.74708 117,300 C 115.78704,300.78387 115.93056,300.9723 117.75,300.98469 C 118.9875,300.99311 120,300.55 120,300 z M 170,299.09136 C 170,298.5916 165.1625,298.19753 159.25,298.21564 C 152.00647,298.23784 149.64164,298.49128 152,298.99265 C 157.11598,300.08026 170,300.15092 170,299.09135 L 170,299.09136 z M 173,298.94098 C 173,298.35852 172.55,298.16008 172,298.5 C 171.45,298.83992 171,299.31648 171,299.55902 C 171,299.80156 171.45,300 172,300 C 172.55,300 173,299.52344 173,298.94098 z M 211.62052,299.28718 C 210.65159,298.31826 189.99954,298.17295 187.5,299.11747 C 186.4,299.53314 191.5375,299.90175 198.91667,299.93661 C 206.29583,299.97151 212.01257,299.67923 211.62052,299.28718 z M 243.25873,298.38601 C 248.84044,297.27572 244.91626,296.45564 237.3252,297.14602 C 233.02134,297.53745 226.35,297.89661 222.5,297.94416 C 218.65,297.99176 214.825,298.49374 214,299.05978 C 212.46416,300.11352 237.46885,299.53772 243.25873,298.38601 z M 301.71873,297 C 312.77663,297 317.90949,296.66257 317.47776,295.96402 C 316.60183,294.54673 253.88979,295.7443 252.5,297.20486 C 251.80183,297.93859 256.6038,298.06627 268.40971,297.62789 C 277.71005,297.28255 292.69911,297 301.71873,297 z M 350,297 C 350,296.45 349.52344,296 348.94098,296 C 348.35852,296 348.16008,296.45 348.5,297 C 348.83992,297.55 349.31648,298 349.55902,298 C 349.80156,298 350,297.55 350,297 z M 382.99975,296.75 C 382.99999,296.01551 379.97787,295.54868 377,295.82322 C 376.175,295.89932 369.98775,296.08267 363.25056,296.23075 C 356.51336,296.37884 351.00086,296.84383 351.00056,297.26406 C 351.00025,297.68429 358.19989,297.90929 366.99975,297.76406 C 375.79961,297.61883 382.99961,297.1625 382.99975,296.75 z M 388,297 C 388,296.45 387.55,296 387,296 C 386.45,296 386,296.45 386,297 C 386,297.55 386.45,298 387,298 C 387.55,298 388,297.55 388,297 z M 241,295.02637 C 248.975,294.44859 259.1376,293.93977 263.58356,293.89567 C 268.02951,293.85157 273.20451,293.42274 275.08356,292.94272 C 277.18705,292.40535 272.06294,292.28957 261.75,292.64143 C 250.86183,293.01291 245,292.86271 245,292.21224 C 245,291.66187 246.0125,291.23275 247.25,291.25864 C 254.20694,291.40417 264,290.57967 264,289.84843 C 264,288.9994 257.28154,288.75476 240.61881,288.99702 C 232.94416,289.1086 231.8191,288.91382 232.33742,287.56307 C 232.71355,286.58291 232.38955,286 231.46862,286 C 230.66088,286 230,286.675 230,287.5 C 230,288.61861 228.66513,289.04855 224.75,289.19096 C 213.93081,289.5845 192.32757,290.04834 187.65717,289.98737 C 181.96215,289.91307 178.73275,290.75857 179.5655,292.10599 C 179.92983,292.69548 186.80846,292.8619 197.33002,292.53576 C 209.77127,292.15013 213.67378,292.28679 211.5,293.032 C 208.83983,293.94395 190.23465,294.58031 152.5,295.04999 C 145.9,295.13219 141.56079,295.49713 142.85731,295.86108 C 146.47746,296.87729 224.62633,296.21263 241,295.02637 L 241,295.02637 z M 222,291.92938 C 222,290.86297 222.64053,290.81081 233.5,290.99279 C 237.9,291.06649 241.90316,291.52397 242.39591,292.00934 C 242.91449,292.52015 238.80806,292.88486 232.64591,292.87529 C 226.76647,292.86616 222,292.44265 222,291.92938 z M 339.5,296.40613 C 334.74955,295.64249 328,295.54663 328,296.24279 C 328,296.65926 331.0375,296.93872 334.75,296.86382 C 338.4625,296.78892 340.6,296.58296 339.5,296.40613 z M 127,293 C 128.13525,292.26635 127.69536,292.0269 125.19098,292.01531 C 123.23644,292.00631 122.13494,292.40933 122.5,293 C 123.27641,294.25626 125.05607,294.25626 127,293 z M 167,291.3744 C 167,290.20905 164.33615,290.04486 151.37354,290.41125 C 142.15112,290.67191 135.30593,291.29407 134.67063,291.92937 C 133.90202,292.69798 138.37096,292.97342 150.29709,292.89253 C 163.92077,292.80011 167,292.52024 167,291.3744 z M 176.50437,291.99294 C 177.29866,290.70774 174.48979,289.59807 172.43662,290.38595 C 170.43285,291.15487 171.53636,293 174,293 C 175.03508,293 176.16205,292.54682 176.50437,291.99294 z M 286.25,292.33772 C 285.5625,292.06031 284.4375,292.06031 283.75,292.33772 C 283.0625,292.61513 283.625,292.84211 285,292.84211 C 286.375,292.84211 286.9375,292.61513 286.25,292.33772 z M 310.25,292.29422 C 309.0125,292.05586 306.9875,292.05586 305.75,292.29422 C 304.5125,292.53257 305.525,292.72759 308,292.72759 C 310.475,292.72759 311.4875,292.53257 310.25,292.29422 z M 424,291.04031 C 424,290.42649 421.02772,289.95124 416.75,289.88106 C 412.7625,289.81566 408.6,289.74715 407.5,289.72885 C 406.4,289.71055 404.15,289.80895 402.5,289.94746 C 399.56389,290.194 399.55324,290.21426 402,290.89907 C 406.22649,292.08199 424,292.1961 424,291.04031 z M 94.248454,290 C 97.595138,290 100.02193,289.6886 99.641325,289.30799 C 98.852078,288.51875 85.899559,287.96797 84.733688,288.67408 C 83.402343,289.48041 85.133624,291.1627 86.682938,290.56817 C 87.497288,290.25568 90.901771,290 94.248454,290 z M 117,289.33607 C 117,288.44399 115.67076,288 113,288 C 110.11968,288 109,288.41787 109,289.4928 C 109,290.59386 110.04969,290.94447 113,290.82887 C 115.59255,290.72728 117,290.20202 117,289.33607 z M 129,288.89059 C 129,288.40077 127.425,288 125.5,288 C 123.29598,288 122,288.48107 122,289.2992 C 122,290.19516 123.08631,290.47158 125.5,290.18979 C 127.425,289.96506 129,289.38042 129,288.89059 L 129,288.89059 z M 270.5,290 C 270.16008,289.45 269.43197,289 268.88197,289 C 268.33197,289 268.16008,289.45 268.5,290 C 268.83992,290.55 269.56803,291 270.11803,291 C 270.66803,291 270.83992,290.55 270.5,290 z M 309.30902,290.0705 C 312.34655,290.026 313.88296,289.61967 313.47988,288.96747 C 312.76124,287.80469 283.00487,288.03398 283.00183,289.20231 C 282.99983,290.02747 293.53835,290.76936 300,290.39894 C 302.475,290.25705 306.66406,290.10925 309.30902,290.0705 L 309.30902,290.0705 z M 365.54174,289.84636 L 376,289.86236 L 376,286.90254 L 376,283.94271 L 351.25,284.50065 C 337.6375,284.80751 324.5875,285.04542 322.25,285.02933 C 318.38602,285.00273 318,285.22504 318,287.477 L 318,289.95392 L 335.75,290.227 C 345.5125,290.37719 353.85628,290.3494 354.29174,290.1653 C 354.72719,289.98115 359.78969,289.83767 365.54174,289.84644 L 365.54174,289.84636 z M 142.93263,287.95837 C 141.5613,287.11083 139,287.76861 139,288.96832 C 139,289.3832 140.16638,289.49969 141.59195,289.22717 C 143.32973,288.89498 143.77155,288.47684 142.93263,287.95837 z M 279.25,289.29427 C 278.0125,289.05591 275.9875,289.05591 274.75,289.29427 C 273.5125,289.53262 274.525,289.72764 277,289.72764 C 279.475,289.72764 280.4875,289.53262 279.25,289.29427 z M 380.21977,286.95597 C 380.65758,283.97296 379.9079,282.42543 378.63948,283.69385 C 377.66711,284.66622 377.87605,290 378.8865,290 C 379.37408,290 379.97405,288.63019 380.21977,286.95597 L 380.21977,286.95597 z M 383.98469,285.75 C 383.99311,284.7875 383.55,284 383,284 C 382.45,284 382.00689,285.4625 382.01531,287.25 C 382.02691,289.71622 382.2644,290.13826 383,289 C 383.53316,288.175 383.97627,286.7125 383.98469,285.75 z M 387,288.44098 C 387,287.58352 386.54266,287.16462 385.98369,287.51008 C 385.42472,287.85554 385.22627,288.5571 385.54271,289.0691 C 386.39994,290.45614 387,290.19751 387,288.44098 L 387,288.44098 z M 167.5,287 C 167.16008,286.45 166.00852,286 164.94098,286 C 163.87344,286 163,286.45 163,287 C 163,287.55 164.15156,288 165.55902,288 C 167.01038,288 167.85052,287.56716 167.5,287 z M 178,287 C 178,286.45 176.65,286 175,286 C 173.35,286 172,286.45 172,287 C 172,287.55 173.35,288 175,288 C 176.65,288 178,287.55 178,287 z M 187.1875,287.31689 C 186.46562,287.02802 185.60312,287.06354 185.27083,287.39579 C 184.93854,287.72808 185.52917,287.96443 186.58333,287.92101 C 187.74828,287.87301 187.98523,287.63607 187.1875,287.31685 L 187.1875,287.31689 z M 226.67164,286.6617 C 227.67654,285.65679 194.70476,285.90096 193.11103,286.91022 C 192.28831,287.43122 198.7113,287.69474 208.866,287.5566 C 218.29517,287.42834 226.30771,287.02563 226.67164,286.6617 z M 269,285.8222 C 261.69874,285.14892 252.65686,285.30289 251,286.12872 C 249.9006,286.6767 268.7963,287.47057 273,287.05301 C 276.85816,286.66978 276.28763,286.49423 269,285.8222 L 269,285.8222 z M 399.1875,287.31689 C 398.46562,287.02802 397.60312,287.06354 397.27083,287.39579 C 396.93854,287.72808 397.52917,287.96443 398.58333,287.92101 C 399.74828,287.87301 399.98523,287.63607 399.1875,287.31685 L 399.1875,287.31689 z M 116,284.66667 C 116,283.93333 115.66824,283.00157 115.26275,282.59609 C 114.85727,282.1906 114.48819,281.3281 114.44258,280.67942 C 114.19483,277.15594 112.64332,271 112.00303,271 C 111.18456,271 110.02821,276.94997 110.01101,281.25 C 110.00301,283.337 110.48218,284 112,284 C 113.1,284 114,284.45 114,285 C 114,285.55 114.45,286 115,286 C 115.55,286 116,285.4 116,284.66667 z M 122.57173,282.2384 C 122.23895,281.90561 121.41543,282.1846 120.74169,282.85831 C 119.77506,283.82494 119.8313,284.27984 121.00836,285.01531 C 122.07098,285.67927 122.59733,285.50097 122.8384,284.3954 C 123.02452,283.54183 122.9045,282.57118 122.57173,282.2384 z M 155.84589,284.48744 C 156.11399,284.21935 152.65833,284 148.16667,284 C 142.90233,284 140,284.39026 140,285.09814 C 140,286.17625 154.72457,285.60877 155.84589,284.48744 z M 387,285 C 387,284.45 386.52344,284 385.94098,284 C 385.35852,284 385.16008,284.45 385.5,285 C 385.83992,285.55 386.31648,286 386.55902,286 C 386.80156,286 387,285.55 387,285 z M 307.91667,283.39862 C 309.52469,281.86023 305.61862,281.72784 282,282.52022 C 270.08599,282.91992 269.85269,282.95264 270.57555,284.12224 C 271.07399,284.92873 276.36605,285.04089 289.38457,284.52086 C 299.34805,284.12287 307.6875,283.61787 307.91667,283.39862 z M 425.25,284.2766 C 423.4625,284.05478 420.5375,284.05478 418.75,284.2766 C 416.9625,284.49843 418.425,284.67993 422,284.67993 C 425.575,284.67993 427.0375,284.49843 425.25,284.2766 z M 214.5,283 C 217.54869,281.68993 215.2606,281.52776 200.5,282.00773 C 192.82834,282.25719 192.16417,282.40365 196,283 C 202.45496,284.00355 212.16462,284.00355 214.5,283 z M 237.25,281.33772 C 236.5625,281.06031 235.4375,281.06031 234.75,281.33772 C 234.0625,281.61513 234.625,281.84211 236,281.84211 C 237.375,281.84211 237.9375,281.61513 237.25,281.33772 z M 246.25,281.33772 C 245.5625,281.06031 244.4375,281.06031 243.75,281.33772 C 243.0625,281.61513 243.625,281.84211 245,281.84211 C 246.375,281.84211 246.9375,281.61513 246.25,281.33772 z M 251.25,281.33772 C 250.5625,281.06031 249.4375,281.06031 248.75,281.33772 C 248.0625,281.61513 248.625,281.84211 250,281.84211 C 251.375,281.84211 251.9375,281.61513 251.25,281.33772 z M 126,279.32123 C 126,277.00394 118.78238,262.85372 117.31275,262.28977 C 116.54329,261.9945 115.71018,261.95649 115.46137,262.20527 C 115.09231,262.57433 118.05634,275.51958 119.44036,279.5833 C 119.98747,281.18972 126,280.94947 126,279.3212 L 126,279.32123 z M 146.04584,279.89331 C 141.90413,278.23958 138,278.11238 138,279.63117 C 138,280.62384 139.44273,280.98258 143.25,280.93661 C 147.71477,280.88271 148.13294,280.72666 146.04584,279.89331 L 146.04584,279.89331 z M 154,278.38342 C 154,276.45937 152.6202,276.65721 150.61933,278.86815 C 149.00627,280.65055 149.04505,280.71404 151.46434,280.25157 C 152.85895,279.98497 154,279.14431 154,278.38342 z M 352.43065,280.11221 C 352.81246,279.49443 349.26712,279.13043 342.86803,279.13043 C 336.18134,279.13043 332.45098,278.7297 331.97546,277.96029 C 331.55063,277.2729 328.89109,276.81834 325.52903,276.8585 C 318.69583,276.9401 316,277.6732 316,279.44973 C 316,280.48128 319.86061,280.80018 333.91194,280.92934 C 344.73884,281.02884 352.06389,280.70564 352.43065,280.11221 L 352.43065,280.11221 z M 369.91667,279.36327 C 370.81393,278.58099 369.22382,278.46608 362.24189,278.80864 C 358.06325,279.01366 355.22978,279.56278 355.56358,280.10288 C 356.08438,280.94554 368.85672,280.28739 369.91667,279.36327 z M 194.5,279 C 194.16008,278.45 193.00852,278 191.94098,278 C 190.87344,278 190,278.45 190,279 C 190,279.55 191.15156,280 192.55902,280 C 194.01038,280 194.85052,279.56716 194.5,279 z M 238,279.003 C 238,278.36968 231.657,278.09632 220.59707,278.253 C 211.02546,278.3886 203.40202,278.83704 203.65609,279.24954 C 204.37352,280.41479 238,280.1734 238,279.00346 L 238,279.003 z M 258.39968,278.83722 C 258.11494,278.3765 255.77102,278.00643 253.19098,278.01485 C 249.81605,278.02585 248.92082,278.29935 250,278.98967 C 251.81623,280.15147 259.12989,280.01873 258.39968,278.83722 L 258.39968,278.83722 z M 269.91667,279.60972 C 268.8893,278.64854 261.01373,278.1683 260.47858,279.0342 C 260.12419,279.60761 262.00361,279.99954 265.10765,279.99954 C 267.98178,279.99954 270.14583,279.82412 269.91667,279.60972 L 269.91667,279.60972 z M 282.13362,278.88524 C 277.6157,278.36096 274.13555,278.39937 273.13362,278.98454 C 272.01818,279.63604 274.35479,279.90719 280.5,279.83937 L 289.5,279.74007 L 282.13362,278.88524 z M 298,279 C 298,278.45 296.90156,278 295.55902,278 C 294.21648,278 292.83992,278.45 292.5,279 C 292.13942,279.58342 293.15628,280 294.94098,280 C 296.62344,280 298,279.55 298,279 z M 382.43783,278.9299 C 380.67596,278.41798 377.49122,278.40975 374.93783,278.9105 C 370.78857,279.72426 370.98768,279.78212 378,279.80024 C 383.98695,279.81574 384.88224,279.64012 382.43783,278.92988 L 382.43783,278.9299 z M 336.25,276.33772 C 335.5625,276.06031 334.4375,276.06031 333.75,276.33772 C 333.0625,276.61513 333.625,276.84211 335,276.84211 C 336.375,276.84211 336.9375,276.61513 336.25,276.33772 z M 383,274 C 383,272.35 382.55,271 382,271 C 381.45,271 381,272.35 381,274 C 381,275.65 381.45,277 382,277 C 382.55,277 383,275.65 383,274 z M 91,272.97325 C 94.575,272.45975 98.123666,272.0307 98.885924,272.01981 C 100.9932,271.98971 99.499455,263.11397 96.994328,260.78009 C 95.846686,259.7109 95,257.63145 95,255.88204 L 95,252.84199 L 87.623602,253.171 C 82.408263,253.40361 79.883751,253.1095 79.006622,252.16698 C 78.116169,251.21018 77.460381,251.13962 76.683021,251.91698 C 76.087359,252.51264 73.230726,253 70.334947,253 C 67.439168,253 63.141668,253.61012 60.784947,254.35582 C 58.428226,255.10153 54.555071,256.30926 52.177935,257.03967 C 47.298568,258.53893 45,261.1539 45,265.20566 C 45,267.51759 45.820834,268.38226 50.050066,270.52537 C 52.827602,271.93285 57.665102,273.46289 60.800066,273.92546 C 67.092691,274.85393 80.948032,274.41707 91,272.97325 z M 340,274 C 340,273.45 338.7625,273.04486 337.25,273.09968 L 334.5,273.19938 L 337,274 C 338.375,274.44035 339.6125,274.8455 339.75,274.90032 C 339.8875,274.95514 340,274.55 340,274 z M 379.02976,262.5 C 379.08546,255.625 379.10916,249.4375 379.08256,248.75 C 378.5226,234.28258 378.62044,122 379.193,122 C 379.63684,122 379.98722,134.0375 379.97162,148.75 C 379.92622,191.58231 380.67353,242.00688 381.36401,242.69735 C 381.90513,243.23847 382.23852,233.20817 382.20152,217.5 C 382.19652,215.3 382.20852,194.15 382.22752,170.5 C 382.27192,116.67654 382.08763,104.39597 381.01975,89.998478 C 380.11191,77.758514 377.67752,69.509104 373.67493,65.109096 C 370.55629,61.680798 362.96337,56.997263 360.5542,57.01584 C 358.97178,57.02804 359.41868,57.628083 362.49998,59.628399 C 364.69998,61.056595 367.3028,63.291922 368.28402,64.595793 C 369.98264,66.852961 369.98474,67.09894 368.32792,69.733234 C 367.37087,71.254955 365.44305,73.92529 364.04388,75.667312 C 362.64471,77.409334 360.67225,80.022257 359.66064,81.473809 C 357.89018,84.01422 357.72787,84.051751 355.32387,82.476595 C 353.95027,81.576575 352.56936,81.097246 352.25519,81.411421 C 351.94101,81.725596 351.08005,81.481451 350.34195,80.868879 C 349.37033,80.062456 349,76.763145 349,68.912739 C 349,59.411671 349.22742,57.948657 350.83833,57.086525 C 351.84941,56.545411 353.76191,56.371021 355.08833,56.698991 C 356.41475,57.026961 357.14701,56.913365 356.71557,56.446555 C 355.56091,55.197217 344.82496,54.169065 342.5,55.085169 C 340.58326,55.840422 340.59121,55.875866 342.69098,55.936614 C 343.89602,55.971474 345.14928,56.432519 345.47599,56.961152 C 345.8027,57.489786 346.20705,63.016672 346.37455,69.24312 C 346.66918,80.195995 346.60097,80.622851 344.27591,82.376648 L 341.87274,84.18936 L 333.43637,75.463248 C 328.79637,70.663887 325,66.541697 325,66.302827 C 325,66.063956 325.51107,64.885601 326.13572,63.684259 C 327.20843,61.621169 327.12471,61.634962 324.62658,63.932897 C 321.52523,66.785708 317.91691,72.583578 318.73418,73.400846 C 319.04662,73.713283 319.83103,73.24576 320.47732,72.361905 C 322.27103,69.908856 325.41566,71.437714 332.08706,78.006339 C 338.46015,84.28124 339.06362,85.831037 337.00066,90.625 C 335.48609,94.144583 334.72388,94.299298 323.30872,93.404234 C 316.45821,92.867085 316.09806,92.713835 315.70855,90.170183 C 315.48366,88.701582 315.23224,90.318622 315.14983,93.763604 L 315,100.02721 L 347.36493,99.422536 L 379.72986,98.817863 L 379.75986,109.903 C 379.79016,121.11248 378.71088,123.9992 377.73306,115.32397 C 377.44033,112.72689 377.5945,109.56656 378.07567,108.30101 C 378.57655,106.98359 378.57456,105.01118 378.07067,103.68677 C 377.10142,101.13746 376.50095,101.14861 359.20084,104.03736 L 351.90201,105.25611 L 351.93691,114.87805 C 351.95611,120.17012 351.94731,126.75 351.91731,129.5 C 351.77906,142.19601 352.20827,166.41926 352.72797,175.25 C 353.1454,182.343 353.65967,185 354.61514,185 C 355.63154,185 355.84518,182.90847 355.55996,175.75 C 355.35726,170.6625 355.11584,153.9 355.02347,138.5 L 354.85552,110.5 L 363.6471,108.26951 C 369.03381,106.90287 372.79696,106.39732 373.3638,106.96416 C 374.35787,107.95823 373.66997,108.15851 362.74964,110.05452 C 357.91568,110.8938 355.99964,111.65486 355.99964,112.73568 C 355.99964,113.79518 356.37211,113.95503 357.24964,113.27213 C 358.92119,111.97133 370.55894,109.61672 372.19988,110.24732 C 373.23652,110.6457 373.49964,118.92058 373.49964,151.12341 L 373.49964,191.5 L 366.54478,191.21181 C 362.71961,191.0533 359.34461,190.67923 359.04478,190.38053 C 358.74495,190.08184 358.35622,180.76152 358.18093,169.66872 C 358.00564,158.57593 357.45711,149.08647 356.96198,148.58105 C 356.42815,148.03612 356.31261,156.58326 356.67811,169.58105 C 357.15198,186.43245 357.60719,191.68488 358.64706,192.29969 C 359.51301,192.81167 359.99964,195.00553 359.99964,198.39751 C 359.99964,203.59394 360.05694,203.69727 362.98757,203.78059 C 364.76443,203.83109 366.41632,203.18348 367.06308,202.18277 C 368.06485,200.63275 368.10773,200.63806 367.60653,202.24997 C 367.19242,203.58184 367.63613,203.99997 369.46364,203.99997 C 370.89293,203.99997 372.06773,204.70831 372.36605,205.74997 C 372.6417,206.71247 372.93488,215.82497 373.01757,225.99997 C 373.10027,236.17497 373.24254,248.66251 373.33377,253.75007 C 373.44944,260.20066 373.14826,263.00014 372.33862,263.00007 C 370.77319,262.99994 359.8098,258.8868 358.27342,257.72323 C 357.37016,257.03915 357.07741,251.54384 357.16191,236.85877 C 357.25901,219.98999 357.03929,216.7366 355.73398,215.71148 C 354.67745,214.88173 354.35447,213.47586 354.70899,211.24997 C 355.31752,207.42938 356.99964,206.87862 356.99964,210.49997 C 356.99964,211.87497 357.44964,212.99997 357.99964,212.99997 C 358.54964,212.99997 359.00578,212.43747 359.01329,211.74997 C 359.02129,211.06247 359.29829,209.48747 359.62993,208.24997 C 360.16082,206.26895 359.86033,205.99997 357.11627,205.99997 C 354.14687,205.99997 353.99964,205.81101 353.99964,201.99997 C 353.99964,198.28659 353.80259,198.00482 351.24964,198.06765 L 348.49964,198.13535 L 350.86401,199.27152 C 353.17245,200.38081 353.21425,200.63351 352.63121,209.95384 C 352.06924,218.93727 351.66051,245.65534 351.89415,258.13386 L 351.99964,263.76772 L 358.2661,266.88386 C 361.71265,268.59773 364.90714,269.99999 365.36497,269.99999 C 365.8228,269.99999 367.61539,270.61382 369.34851,271.36406 C 376.29138,274.36952 377.52822,274.86734 378.21393,274.93231 C 378.60678,274.96951 378.97375,269.37499 379.0294,262.49999 L 379.02976,262.5 z M 344.5,93.325449 C 339.87361,92.30175 339.7851,92.172387 341.60407,89.093112 C 345.59765,82.33252 354.03814,82.305507 357.52181,89.042172 C 359.02107,91.941425 358.9915,92.052737 356.46706,93.012528 C 353.85945,94.003937 348.23136,94.151105 344.5,93.325452 L 344.5,93.325449 z M 361.08349,90.809668 C 359.29076,85.667026 359.74341,84.493288 366.2121,77.510987 L 372.42421,70.805649 L 374.19905,72.997488 C 376.01051,75.234546 377.38459,79.623157 378.3215,86.163948 C 379.15982,92.016441 377.40425,93.462896 369.16419,93.708891 L 362.16699,93.917783 L 361.08349,90.809668 L 361.08349,90.809668 z M 382.78972,261.99516 C 382.80972,257.4169 382.43414,254.23169 381.91234,254.55418 C 380.74285,255.27696 380.70953,270 381.87734,270 C 382.35991,270 382.77046,266.39782 382.78968,261.99516 L 382.78972,261.99516 z M 315.98469,247.75 C 315.97669,236.6125 315.6073,228.07044 315.16477,228.76764 C 314.72223,229.46484 314.49963,236.66484 314.67009,244.76764 C 314.84054,252.87044 314.98451,261.4125 314.99,263.75 C 314.995,266.0875 315.225,268 315.5,268 C 315.775,268 315.99311,258.8875 315.98469,247.75 L 315.98469,247.75 z M 370.10403,256.25 C 370.70904,251.88797 370.55121,240.12514 369.87003,238.81069 C 369.34692,237.80125 369.38287,236.8814 369.95943,236.5251 C 370.52685,236.17442 370.81403,230.07424 370.6567,221.71442 L 370.38912,207.5 L 365.69456,207.19521 L 361,206.89042 L 361,230.49348 L 361,254.09655 L 364.25,255.50913 C 367.91152,257.10058 369.95026,257.3586 370.10403,256.25 z M 382.39936,245.1548 C 381.85041,243.92981 381.50496,244.40908 381.06935,247 C 380.7457,248.925 380.9352,251.01563 381.49045,251.64584 C 382.7476,253.0727 383.50944,247.63197 382.39936,245.1548 z M 88,247.14669 C 88,246.12737 88.286764,242.54977 88.637254,239.19647 L 89.274508,233.09955 L 86.387254,233.86609 C 83.822052,234.54712 83.363849,235.29448 82.279381,240.56631 C 80.774358,247.88254 81.13068,249 84.968615,249 C 87.253354,249 88,248.54352 88,247.14669 z M 94.645605,240.4364 C 94.812955,233.71182 94.647305,233 92.915335,233 C 91.273173,233 90.998053,233.74878 90.986345,238.25 C 90.978845,241.1375 90.712082,244.47146 90.393561,245.65881 C 89.972256,247.2293 90.316621,247.92856 91.657216,248.22474 C 92.670747,248.44866 93.716122,248.46107 93.98027,248.25234 C 94.244419,248.04359 94.54382,244.52642 94.645605,240.43641 L 94.645605,240.4364 z M 108,233 C 108,232.45 107.55,232 107,232 C 106.45,232 106,232.45 106,233 C 106,233.55 106.45,234 107,234 C 107.55,234 108,233.55 108,233 z M 95,229.08179 C 95,228.57677 95.273145,227.45177 95.606989,226.58179 C 96.0053,225.5438 95.66151,225 94.606989,225 C 93.559534,225 93,225.87047 93,227.5 C 93,228.875 93.45,230 94,230 C 94.55,230 95,229.5868 95,229.08179 z M 109.17866,226.5 C 110.26024,225.125 111.7875,224 112.57258,224 C 114.63931,224 114.3368,222.7027 111.50122,219.40554 C 110.12689,217.80749 109.00189,217.03594 109.00122,217.69098 C 109.00055,218.34602 109.45,219.16008 110,219.5 C 110.55,219.83992 111,220.77685 111,221.58207 C 111,222.81419 110.5969,222.78198 108.45532,221.37877 C 105.99423,219.7662 105.81356,219.80444 102.95532,222.54281 C 100.21208,225.17099 98.743291,228.89472 101,227.5 C 101.55,227.16008 102,227.35852 102,227.94098 C 102,230.05634 107.20273,229.01198 109.17866,226.5 L 109.17866,226.5 z M 315.70573,215.75 C 315.46738,214.5125 315.27236,215.525 315.27236,218 C 315.27236,220.475 315.46738,221.4875 315.70573,220.25 C 315.94409,219.0125 315.94409,216.9875 315.70573,215.75 z M 93.55887,215.4706 C 95.438653,213.98954 95.423466,213.95003 93.078328,214.2206 C 91.746408,214.37427 90.471408,215.0625 90.244995,215.75 C 89.684806,217.451 91.208363,217.32255 93.55887,215.4706 z M 315.66228,206.75 C 315.38487,206.0625 315.15789,206.625 315.15789,208 C 315.15789,209.375 315.38487,209.9375 315.66228,209.25 C 315.93969,208.5625 315.93969,207.4375 315.66228,206.75 z M 357.96456,197.69098 C 357.93086,193.7008 357.86656,193.61282 356.62328,195.85483 C 355.2403,198.34874 355.61434,203.35638 357.11435,202.42933 C 357.60146,202.12828 357.98405,199.99602 357.96456,197.69098 z M 315.60417,199.27083 C 315.27188,198.93854 315.03553,199.52917 315.07895,200.58333 C 315.12695,201.74828 315.36389,201.98523 315.68311,201.1875 C 315.97198,200.46562 315.93646,199.60312 315.60421,199.27083 L 315.60417,199.27083 z M 353,190.93785 C 353,189.79948 350.31358,189.6836 349.6283,190.79241 C 349.35894,191.22824 350.00738,191.65028 351.06928,191.73027 C 352.13118,191.81027 353,191.45367 353,190.93785 L 353,190.93785 z M 107,172 C 107,171.45 106.57656,171 106.05902,171 C 105.54148,171 104.83992,171.45 104.5,172 C 104.16008,172.55 104.5835,173 105.44098,173 C 106.29844,173 107,172.55 107,172 z M 113.89074,165.61273 C 115.69643,163.74973 116.7972,162.0069 116.33691,161.73978 C 114.95155,160.93583 107,164.8129 107,166.29233 C 107,170.08213 109.82928,169.80309 113.89074,165.61273 z M 117.58557,152.98343 L 118.9868,149.5 L 116.59074,152.39434 C 114.85784,154.48762 113.6852,155.09318 112.35387,154.5823 C 110.65834,153.93166 110.70985,153.72196 113.00653,151.92545 C 115.39799,150.05479 115.42431,149.91686 113.64986,148.55403 C 112.63229,147.7725 112.09634,146.65313 112.45888,146.06653 C 112.87697,145.39005 111.85909,145 109.67565,145 C 107.0719,145 106.10558,145.48825 105.70917,147.00413 C 105.35955,148.34108 104.65493,148.80481 103.59254,148.39714 C 101.28797,147.51279 101.55749,150.55749 104,153 C 106.11056,155.11056 106.68845,158 105,158 C 104.45,158 104,158.87921 104,159.95381 C 104,161.80834 104.30957,161.76938 110.09217,159.18724 C 115.01971,156.98692 116.45221,155.80095 117.58557,152.98343 z M 357.73473,125.40639 C 357.98978,119.82901 357.79613,116.00794 357.27485,116.33013 C 356.77965,116.63618 356.25694,121.29539 356.11328,126.68392 C 355.77869,139.23429 357.15186,138.15236 357.73473,125.40639 z M 316.1271,113.7271 C 315.29097,112.89097 315.03652,114.91049 315.14148,121.55 L 315.28296,130.5 L 316.26858,122.6771 C 316.98103,117.02236 316.94182,114.54182 316.1271,113.7271 z M 34.946882,273.75 C 34.428336,271.30944 34.680318,249.69757 35.231291,249.35705 C 37.420071,248.00431 35.567719,247.04549 31.89895,247.63215 C 28.245147,248.21642 27.837437,248.08264 28.160434,246.40545 C 28.359827,245.37008 29.417799,244.35688 30.511484,244.15388 C 34.793817,243.35902 34.810584,243.22023 34.430435,211.71264 C 34.229946,195.09569 34.090463,180.825 34.120472,180 C 34.638361,165.76253 34.918923,123.97832 34.526702,119.5 C 34.382191,117.85 34.573892,114.1375 34.952698,111.25 L 35.641441,106 L 31.737387,106 C 26.671597,106 27.170028,103.62546 32.3273,103.18963 C 34.347285,103.01893 36,102.53587 36,102.11616 C 36,101.13211 19.408185,101.2584 18.416631,102.25 C 18.004151,102.6625 19.091667,103 20.833333,103 C 24.466324,103 25.253701,105.43889 21.903548,106.31497 C 19.184849,107.02593 17,106.15854 17,104.36826 C 17,103.58849 15.883595,102.52604 14.5191,102.00726 C 12.987551,101.42497 12.244527,100.52635 12.577385,99.658933 C 12.999176,98.559763 15.498885,98.280639 24.058482,98.376921 L 35.000395,98.5 L 34.999806,96 C 34.999223,93.527259 34.900056,93.498421 25.904768,93.35516 C 16.676153,93.208183 13.496676,92.103324 15.767509,89.832491 C 16.653446,88.946554 18.209015,88.941814 22.217509,89.812841 C 30.088427,91.523146 34.425631,90.978276 34.819551,88.229684 C 35.104634,86.240505 34.67318,85.980277 30.819551,85.817116 C 28.443798,85.716527 25.222627,85.723646 23.661392,85.832936 C 21.753751,85.966477 20.962272,85.616501 21.248094,84.765825 C 21.526827,83.936246 23.883634,83.463612 28.086701,83.394411 C 33.568107,83.304161 34.541801,83.013551 34.787678,81.394411 C 35.05376,79.642222 34.396868,79.514208 26.037678,79.689225 C 18.752826,79.841747 17,79.599314 17,78.439223 C 17,77.3081 18.695081,77 24.918213,77 C 32.944289,77 36,76.442196 36,74.977077 C 36,74.532158 32.5125,74.286857 28.25,74.431964 C 19.487446,74.730266 17.905718,74.40927 18.645002,72.482727 C 19.01221,71.525798 20.381163,71.278904 23.331859,71.637443 C 28.088934,72.215476 36,71.258734 36,70.105394 C 36,69.680761 35.4375,69.305871 34.75,69.272307 C 34.0625,69.238742 29.329483,69.107799 24.232185,68.981323 C 19.134887,68.854847 14.751324,68.406651 14.490935,67.985332 C 13.694115,66.696051 20.089582,66.044522 28.25,66.583648 C 34.298242,66.98323 36,66.802837 36,65.762115 C 36,64.226991 35.560401,64.156829 23.583056,63.780312 C 17.549056,63.590628 14.531489,63.095862 14.249723,62.25 C 13.937768,61.313513 16.236936,60.968649 23.416667,60.875 C 28.6875,60.80625 33.45,60.6375 34,60.5 C 34.55,60.3625 35.3375,60.162122 35.75,60.054715 C 38.463234,59.348242 31.038844,58.128944 23.666667,58.070285 C 17.51569,58.021345 14.948937,57.65319 15.214029,56.857913 C 15.467039,56.098883 18.597447,55.768986 24.547362,55.874321 C 32.641861,56.017624 37.376832,55.043499 35.876841,53.543508 C 35.56596,53.232627 31.776323,52.764998 27.455425,52.504333 C 21.862927,52.166958 19.379264,52.386193 18.835787,53.265199 C 18.25467,54.205083 17.677174,54.104954 16.417839,52.845961 C 13.345419,49.774376 15.553724,49.025793 25.790803,49.668666 C 34.995817,50.246726 38.400651,49.586276 30.963778,48.665244 C 26.80289,48.14993 24,47.074648 24,45.993705 C 24,44.557799 33.086155,44.218531 67.750275,44.36011 C 86.587927,44.43705 102.00043,44.1625 102.00028,43.75 C 101.99989,42.706296 102.97831,42.812332 87,42.12434 C 78.571088,41.761408 72.709348,41.110871 73,40.570617 C 73.559971,39.529761 103.86236,39.77541 105.48129,40.833929 C 106.04158,41.200268 111.225,41.507607 117,41.516905 C 122.775,41.526205 127.725,41.958442 128,42.477435 C 128.30161,43.046649 124.53222,43.325147 118.5,43.179333 C 111.47804,43.009595 108.94671,43.240143 110,43.953491 C 110.825,44.512227 113.6375,44.976265 116.25,44.984687 C 118.8625,44.993109 121,45.45 121,46 C 121,46.55 119.575,47 117.83333,47 C 113.3652,47 114.62238,47.660345 120.39808,48.347155 C 125.34583,48.93551 130,52.002364 130,54.674314 C 130,56.487359 128.29301,56.345991 127.22907,54.444834 C 125.15704,50.742321 118.89267,49.956126 91.673512,49.982512 C 77.27808,49.996472 64.009065,49.749609 62.18681,49.43394 C 60.364556,49.118271 58.339556,49.300636 57.68681,49.839195 C 57.034065,50.377754 54.3121,51.04483 51.638,51.321584 C 47.89119,51.709359 45.9989,52.577971 43.388,55.108554 C 39.692394,58.690477 39.186944,60 41.5,60 C 42.325,60 43,60.45 43,61 C 43,61.55 42.325,62 41.5,62 C 40.675,62 40,62.675 40,63.5 C 40,64.325 39.514245,65 38.920545,65 C 38.246175,65 38.083524,66.103796 38.487118,67.941348 C 38.842434,69.55909 38.713996,71.69659 38.201701,72.691348 C 36.791696,75.42925 37.842216,77 41.083333,77 C 42.6875,77 44,77.45 44,78 C 44,79.086307 42.81638,79.332234 39.095951,79.018938 L 36.691901,78.816495 L 37.523545,88.658247 C 37.980949,94.071211 38.279469,109.075 38.186922,122 C 38.068503,138.5382 38.371982,146.18484 39.211334,147.81171 C 40.081134,149.4976 40.109729,150.59465 39.316957,151.86408 C 38.570375,153.05955 38.326053,165.16817 38.536892,190.52416 C 38.705737,210.82984 38.550182,227.90628 38.191224,228.47179 C 37.832261,229.03731 37.470371,232.5375 37.387025,236.25 C 37.24714,242.48088 37.399465,243.01069 39.367743,243.13894 C 40.540484,243.21534 47.575,243.37226 55,243.4876 C 74.151952,243.78511 74,243.76795 74,245.63263 C 74,247.10325 72.188898,247.21073 55.75,246.71573 L 37.5,246.16618 L 37.825584,260.08309 C 38.10956,272.22149 37.949816,274 36.575584,274 C 35.709013,274 34.976097,273.8875 34.946882,273.75 z M 41.841879,52 L 44.059875,49 L 41.029937,49 C 38.330007,49 38,49.326746 38,52 C 38,53.65 38.365374,55 38.811942,55 C 39.258509,55 40.621981,53.65 41.841879,52 z M 84.25,47.337719 C 83.5625,47.060307 82.4375,47.060307 81.75,47.337719 C 81.0625,47.615132 81.625,47.842105 83,47.842105 C 84.375,47.842105 84.9375,47.615132 84.25,47.337719 z M 107.48992,43.983688 C 107.14446,43.424717 106.4429,43.226274 105.9309,43.542705 C 104.54386,44.399945 104.80249,45 106.55902,45 C 107.41648,45 107.83538,44.54266 107.48992,43.983688 z M 211.68183,237.3485 C 211.46942,237.13608 195.53784,236.96691 176.27833,236.97256 L 141.26103,236.98286 L 140.69251,232.74418 C 140.1339,228.57943 140.03231,219.0986 139.67729,138 L 139.5,97.5 L 219.03172,97.346946 C 262.77417,97.262766 299.74982,97.420676 301.19983,97.697869 C 303.76209,98.187676 303.83149,98.393462 303.66811,105.01709 C 303.57561,108.76547 303.2075,111.75755 302.85,111.66616 C 302.4925,111.57476 302.155,111.8375 302.1,112.25 C 301.81839,114.36204 302.097,115.05818 303,114.5 C 303.55,114.16008 304,114.35852 304,114.94098 C 304,115.52344 303.325,116 302.5,116 C 301.45009,116 301.0355,116.97519 301.11831,119.25 L 301.23663,122.5 L 302.00788,119.5 C 302.59987,117.19728 302.62195,177.29967 302.04928,232.2279 L 301.99998,236.9558 L 280.74998,236.9147 C 269.06248,236.8921 248.82779,237.06736 235.784,237.30415 C 222.74021,237.54094 211.89422,237.56089 211.68181,237.34845 L 211.68183,237.3485 z M 150.23834,231.29274 C 148.99443,231.05355 147.19443,231.06263 146.23834,231.31294 C 145.28225,231.56323 146.30004,231.75894 148.5,231.74784 C 150.7,231.73674 151.48225,231.53195 150.23834,231.29276 L 150.23834,231.29274 z M 201.25,231.29474 C 200.0125,231.05638 197.9875,231.05638 196.75,231.29474 C 195.5125,231.53309 196.525,231.72811 199,231.72811 C 201.475,231.72811 202.4875,231.53309 201.25,231.29474 z M 207.25,231.33814 C 206.5625,231.06073 205.4375,231.06073 204.75,231.33814 C 204.0625,231.61555 204.625,231.84253 206,231.84253 C 207.375,231.84253 207.9375,231.61555 207.25,231.33814 z M 264.65544,229.67831 C 265.02828,229.30505 262.10833,229 258.16667,229 C 254.225,229 251,229.39637 251,229.88083 C 251,230.89167 263.62935,230.70398 264.65544,229.67789 L 264.65544,229.67831 z M 226.59868,228.86775 C 224.45295,228.37332 222.15914,227.23274 221.50132,226.33312 C 220.65709,225.17856 220.09596,225.03614 219.59363,225.84893 C 219.20221,226.48183 217.92797,227 216.76198,227 C 214.01541,227 208,224.82338 208,223.82956 C 208,223.4068 206.52841,223.11623 204.72979,223.18384 C 200.69604,223.33549 194.57015,221.39192 192.95755,219.44885 C 191.4063,217.57971 189.62174,217.57187 190.33759,219.43735 C 190.658,220.27234 190.17899,221.06188 189.19457,221.32135 C 187.98639,221.6398 188.14581,221.80129 189.75,221.884 C 190.9875,221.9478 192,222.41425 192,222.92054 C 192,223.42684 193.35,224.1376 195,224.5 C 196.65,224.8624 198,225.51076 198,225.94081 C 198,226.64079 189.91246,226.58812 157.75,225.67872 C 150.81674,225.48268 148,225.74092 148,226.57269 C 148,228.39776 155.57559,228.94118 181.41463,228.96961 C 194.56768,228.98411 205.44595,229.10934 205.58857,229.24796 C 205.73119,229.38658 211.39461,229.55991 218.17394,229.63314 C 227.45774,229.73342 229.53709,229.54444 226.59868,228.86733 L 226.59868,228.86775 z M 299,229.21429 C 299,228.25922 297.46419,228.13462 283.78709,227.98012 C 277.89499,227.91352 272.26999,228.32712 271.28709,228.89914 C 269.99033,229.65382 273.54699,229.94753 284.25,229.96959 C 292.3625,229.98629 299,229.64643 299,229.21429 L 299,229.21429 z M 145.8177,213 C 145.67169,204.75 145.20762,198 144.78643,198 C 144.36523,198 144.03836,204.75 144.06005,213 C 144.08435,222.22456 144.48136,228 145.09132,228 C 145.71482,228 145.98457,222.42949 145.8177,213 z M 252.75,226.45908 C 256.82338,225.95727 258,225.42247 258,224.07283 C 258,221.35365 256.97442,220.96187 253.95022,222.52574 C 249.28826,224.93654 238.21888,225.47008 233,223.53554 C 224.88621,220.52791 225,220.53129 225,223.29805 C 225,225.73201 225.29804,225.85471 232.75,226.48854 C 237.0125,226.85109 240.95,227.30876 241.5,227.50558 C 242.05,227.70241 243.625,227.69299 245,227.48468 C 246.375,227.27634 249.8625,226.81484 252.75,226.45912 L 252.75,226.45908 z M 299,226.04051 C 299,224.96369 298.67204,224.90584 290.75,224.58521 C 285.69628,224.38067 284.12348,225.64491 288.75,226.19284 C 295.94945,227.04549 299,227.00015 299,226.04051 z M 268.14578,221.99396 C 268.5447,220.07228 269.01259,215.80765 269.18554,212.517 L 269.5,206.53401 L 262,202.29389 C 257.875,199.96183 252.72242,196.91668 250.54983,195.52689 C 245.81477,192.49791 244,192.33482 244,194.93826 C 244,196.43171 244.63111,196.83332 246.75,196.68826 C 249.06687,196.52965 249.5,196.89375 249.5,199 C 249.5,201 249,201.5 247,201.5 C 244.58699,201.5 242.41991,204.25238 243.48106,205.96936 C 243.74778,206.40092 246.04043,207.27636 248.57584,207.91478 C 255.91723,209.76336 260.90359,213.56888 260.9682,217.37244 C 260.9949,218.9456 261.24654,219.04028 262.54238,217.96483 C 264.19594,216.5925 265.69345,217.46513 266.03491,220 C 266.47463,223.26437 265.88231,224.00361 262.75,224.09968 C 259.66357,224.19438 259.62582,224.2402 262,225.01084 C 266.06924,226.33167 267.37877,225.68885 268.14578,221.99396 z M 261.66667,213.33333 C 260.51359,212.18026 260.93418,210.30285 262.88538,207.89322 C 264.50174,205.89711 265.00116,205.75608 266.38538,206.90488 C 268.45386,208.62156 268.47401,212.60413 266.41818,213.39301 C 264.35003,214.18663 262.49666,214.16336 261.66664,213.33331 L 261.66667,213.33333 z M 252.25,206.30163 C 250.70861,205.72417 250.60213,202.36393 252.09596,201.44069 C 252.69874,201.06815 253.82814,201.39959 254.60574,202.17717 C 255.75208,203.32351 255.78123,203.8917 254.75978,205.18046 C 254.0669,206.05467 252.9375,206.5592 252.25,206.30163 z M 285,225 C 285,223.72399 279.97449,223.72399 278,225 C 276.90149,225.70991 277.63754,225.97347 280.75,225.98469 C 283.0875,225.99311 285,225.55 285,225 z M 272.41821,224.39301 C 274.61246,223.551 274.39615,222.45545 272,222.27495 C 270.85746,222.18885 270,222.74075 270,223.56215 C 270,225.18078 270.19275,225.247 272.41821,224.39301 z M 290,222 C 288.04347,220.73559 286,220.73559 286,222 C 286,222.55 287.2375,222.99311 288.75,222.98469 C 290.89294,222.97279 291.16887,222.75538 290,222 z M 178.875,221.375 C 181.79463,220.79107 182,220.46691 182,216.44239 C 182,213.01303 181.59223,212.00535 180,211.5 C 177.24059,210.6242 177.44061,206.83212 180.40245,203.87028 C 182.85453,201.4182 183.3277,200.11518 183.11848,196.39084 C 183.00343,194.3428 182.53629,194.2786 167,194.17575 L 151,194.06983 L 150.9662,198.28492 C 150.9476,200.60321 150.69026,206.8875 150.39437,212.25 L 149.85639,222 L 162.80322,222 C 169.92397,222 177.15629,221.71875 178.87504,221.375 L 178.875,221.375 z M 159.71406,216.38073 C 157.1689,213.83557 161.78191,207.74188 164.80854,209.65102 C 165.76107,210.25187 166.5,211.98094 166.5,213.60899 C 166.5,216.09686 166.07665,216.54147 163.46406,216.79739 C 161.79429,216.96096 160.10679,216.77349 159.71406,216.38073 L 159.71406,216.38073 z M 164.45729,214.0691 C 165.19684,212.8725 163.31567,211.68687 161.98369,212.51008 C 160.86533,213.20126 161.59952,215 163,215 C 163.48508,215 164.14086,214.58109 164.45729,214.0691 z M 170.21613,202.15474 C 168.71227,201.20051 169.53848,198.39108 171.54995,197.6192 C 173.48175,196.87791 176.43161,201.10729 174.73459,202.18519 C 173.15703,203.18722 171.82922,203.17827 170.21613,202.15469 L 170.21613,202.15474 z M 153,199.60699 C 153,196.68579 155.81537,195.3868 157.81429,197.38571 C 159.8451,199.41653 158.56694,202 155.53138,202 C 153.52809,202 153,201.50078 153,199.60699 z M 240.5,221 C 241.72669,219.01517 239.99154,218.10699 236.97908,219.15714 C 235.34189,219.72786 234.2534,220.60099 234.5602,221.09741 C 235.31485,222.31846 239.7299,222.24605 240.5,221.00001 L 240.5,221 z M 249,220.9561 C 249,220.24043 244.41699,218 242.95295,218 C 242.42883,218 242,218.9141 242,220.03133 C 242,221.73107 242.57132,222.02417 245.5,221.82694 C 247.425,221.6973 249,221.30543 249,220.95613 L 249,220.9561 z M 217.5,220 C 217.16008,219.45 216.68352,219 216.44098,219 C 216.19844,219 216,219.45 216,220 C 216,220.55 216.47656,221 217.05902,221 C 217.64148,221 217.83992,220.55 217.5,220 z M 299,219.9289 C 299,219.41801 297.17344,219 294.94098,219 C 292.70852,219 291.09362,219.3375 291.35231,219.75 C 292.04485,220.8543 299,221.01701 299,219.92891 L 299,219.9289 z M 237,216.99787 C 237,216.71586 234.75139,216.48847 232.0031,216.49256 C 226.88437,216.50056 225.79458,217.22602 228.56995,218.7792 C 230.06254,219.6145 237,218.14857 237,216.99788 L 237,216.99787 z M 255.88977,218.63281 C 256.80561,217.52929 256.2989,217.14572 253.26221,216.64382 C 248.19034,215.80555 247,215.84576 247,216.85534 C 247,217.32578 248.4625,218.17984 250.25,218.75325 C 254.67942,220.17417 254.60932,220.17567 255.88977,218.63282 L 255.88977,218.63281 z M 272,219 C 272,218.45 271.55,218 271,218 C 270.45,218 270,218.45 270,219 C 270,219.55 270.45,220 271,220 C 271.55,220 272,219.55 272,219 z M 290,215 C 290,214.45 289.55,214 289,214 C 288.45,214 288,214.45 288,215 C 288,215.55 288.45,216 289,216 C 289.55,216 290,215.55 290,215 z M 155.81324,184.55954 C 164.31538,174.45856 169.81073,172.89373 182.16527,177.05567 C 185.52147,178.1863 188.8993,178.86888 189.67158,178.57253 C 190.44385,178.27618 191.33182,178.70113 191.64484,179.51686 C 193.03743,183.14588 195.94569,179.95464 195.98635,174.75293 C 195.99435,173.79204 197.18797,170.40456 198.63993,167.22521 C 200.69359,162.72833 202.74782,160.27821 207.88993,156.19255 C 211.52547,153.30394 215.625,150.69133 217,150.38674 C 221.2627,149.44249 222.30956,148.97622 221.64931,148.31597 C 220.85683,147.5235 149.20766,146.98308 147.19758,147.75442 C 145.9728,148.22441 145.86752,149.95159 146.54818,158.40768 C 146.99498,163.95846 147.21092,170.075 147.02804,172 C 146.56276,176.89755 146.53303,183.65574 146.91804,197 C 147.41765,214.31573 148.41233,217.55497 149,203.78 L 149.5,192.06 L 155.81324,184.55954 L 155.81324,184.55954 z M 236,214.03518 C 236,212.03189 232.22486,210.96168 229.31547,212.14018 L 226.5,213.28065 L 229,214.04064 C 232.64186,215.14776 236,215.14514 236,214.03564 L 236,214.03518 z M 255,214.01908 C 255,212.65163 250.39292,211.63275 248.80684,212.64942 C 247.91405,213.2217 248.60893,213.68507 251,214.11193 C 252.925,214.45558 254.6125,214.79599 254.75,214.86839 C 254.8875,214.94079 255,214.5586 255,214.01908 z M 246.25,212.38404 C 248.83671,211.47161 248.37375,210 245.5,210 C 244.125,210 243,210.1882 243,210.41821 C 243,210.64823 242.70329,211.60963 242.34065,212.55466 C 241.86378,213.79737 242.07134,214.09694 243.09065,213.63709 C 243.86579,213.2874 245.2875,212.72351 246.25,212.38401 L 246.25,212.38404 z M 240.82332,211.3325 C 240.49506,209.63949 236.31298,208.6846 235.43663,210.10257 C 234.88834,210.98972 237.84822,212.92424 239.82332,212.96962 C 240.55115,212.98632 241.00115,212.24964 240.82332,211.3325 z M 299,211.96579 C 299,211.39697 297.89202,211.07996 296.53781,211.26131 C 292.76583,211.76645 292.26602,213 295.83333,213 C 297.575,213 299,212.53461 299,211.96579 z M 299,209 C 299,208.45 297.65,208 296,208 C 294.35,208 293,208.45 293,209 C 293,209.55 294.35,210 296,210 C 297.65,210 299,209.55 299,209 z M 240.39677,205.93138 C 240.88999,205.47767 241.51384,201.67369 241.7831,197.47809 C 242.17878,191.31248 242.00683,189.91076 240.88633,190.16807 C 240.12385,190.34317 239.39606,190.03948 239.26902,189.49321 C 238.89818,187.89863 244.06694,186.9904 249.72682,187.6556 C 255.47022,188.33063 255.71356,188.12579 256.35058,182.07985 C 257.11709,174.805 253.9973,166.23377 248.69632,161.05068 C 236.89492,149.51176 215.75187,150.64166 207.31747,163.262 C 203.53209,168.92605 201,177.02927 201,183.47927 C 201,187.9527 201.11658,188.14305 203.75,187.9694 C 210.52283,187.52282 212.08347,188.0523 216.36752,192.25 C 218.75309,194.5875 220.90668,197.1311 221.15327,197.90244 C 221.39987,198.67379 222.70376,199.40323 224.05081,199.52343 C 225.39787,199.64363 226.3875,200.25003 226.25,200.87099 C 226.1125,201.49194 226.45,202 227,202 C 227.55,202 228,202.69399 228,203.54221 C 228,206.52501 230.26522,207.72297 234.9735,207.23012 C 237.46308,206.96952 239.90355,206.38509 240.39677,205.93138 z M 224.16737,201.76737 C 223.27754,200.87754 223.01609,201.42024 223.06768,204.05 C 223.13128,207.28999 223.2023,207.36105 224.23505,205.21737 C 225.04816,203.52961 225.03052,202.63052 224.16735,201.76737 L 224.16737,201.76737 z M 299,206 C 297.02911,204.72631 293,204.72631 293,206 C 293,206.55 294.6875,206.99311 296.75,206.98469 C 299.53938,206.97329 300.11575,206.72105 299,206 z M 276.58031,204.01365 C 279.25308,203.97987 288,194.1519 288,191.18258 C 288,190.40743 281.0411,190.37989 268.5,191.10538 C 267.95,191.13718 263.1125,190.91461 257.75,190.61073 C 252.3875,190.30685 248,190.38896 248,190.7932 C 248,191.19743 249.8605,192.3342 252.13444,193.31934 C 254.40838,194.30449 258.79588,196.75921 261.88444,198.77428 C 270.78369,204.58044 271.38771,204.87504 273.5,204.43958 C 274.6,204.21282 275.98614,204.02113 276.58031,204.01362 L 276.58031,204.01365 z M 291,202.94098 C 291,202.35852 290.55,202.16008 290,202.5 C 289.45,202.83992 289,203.31648 289,203.55902 C 289,203.80156 289.45,204 290,204 C 290.55,204 291,203.52344 291,202.94098 z M 299.48455,184.75 C 299.03706,174.1625 298.72846,160.325 298.79878,154 C 298.88698,146.06358 298.63811,143.19722 297.99554,144.75 C 297.48344,145.9875 296.48745,147.05992 295.78222,147.13316 C 295.077,147.20636 280.4375,147.17766 263.25,147.06926 C 244.29918,146.94976 232,147.24173 232,147.8111 C 232,148.3275 233.40621,149.03124 235.12492,149.37498 C 238.13546,149.97709 247.82192,153.79323 253,156.41715 C 254.375,157.11392 255.3875,158.2051 255.25,158.842 C 255.1125,159.4789 255.64234,160 256.42742,160 C 257.87281,160 262,164.54363 262,166.13486 C 262,166.61069 261.325,167 260.5,167 C 259.675,167 259,167.43875 259,167.975 C 259,168.525 260.30769,168.68846 262,168.35 C 263.91111,167.96778 265,168.15833 265,168.875 C 265,169.49375 263.65,170 262,170 C 260.35,170 259,170.42171 259,170.93713 C 259,171.45255 260.575,171.61867 262.5,171.30629 C 264.77148,170.93768 266,171.13525 266,171.86916 C 266,172.49112 264.90156,173 263.55902,173 C 262.21648,173 260.81566,173.48924 260.4461,174.08721 C 260.0135,174.78718 260.79389,175.10562 262.63708,174.98125 C 267.3159,174.66555 267.79487,175.23101 263.5,176 L 259.5,176.71619 L 263.25,176.85809 C 265.3125,176.93609 267,177.45 267,178 C 267,178.55 265.3125,179.07565 263.25,179.1681 L 259.5,179.33621 L 263.19667,179.72529 C 265.53956,179.97188 266.72543,180.55195 266.43483,181.30924 C 265.38414,184.0473 270.12391,185.17368 282.25022,185.06768 C 288.85077,185.00998 294.56443,184.7692 294.94723,184.53261 C 296.14709,183.79106 298.97964,187.88949 298.36831,189.48258 C 298.04805,190.31716 296.63417,191 295.22634,191 C 293.81852,191 292.92543,191.25877 293.2417,191.57504 C 293.73237,192.0657 294.60027,192.31445 298,192.9388 C 298.275,192.9893 297.825,193.46684 297,194 C 295.91003,194.70439 295.85783,194.97356 296.80902,194.98469 C 297.52898,194.99269 297.82861,195.4683 297.47486,196.04068 C 297.12111,196.61305 295.96956,196.80773 294.91584,196.47329 C 293.84486,196.13337 293,196.33593 293,196.93261 C 293,197.51968 294.125,198 295.5,198 C 297.33333,198 298,198.53333 298,200 C 298,201.47897 297.33333,202 295.44098,202 C 293.98962,202 293.14948,202.43284 293.5,203 C 293.83992,203.55 295.50856,204 297.2081,204 L 300.29816,204 L 299.48455,184.75 z M 296.1875,200.31689 C 295.46562,200.02802 294.60312,200.06354 294.27083,200.39579 C 293.93854,200.72808 294.52917,200.96443 295.58333,200.92101 C 296.74828,200.87301 296.98523,200.63607 296.1875,200.31685 L 296.1875,200.31689 z M 186.92971,198.25 C 186.89111,197.8375 186.47269,196.6 186,195.5 C 185.23844,193.72775 185.13257,193.81316 185.07029,196.25 C 185.03159,197.7625 185.45,199 186,199 C 186.55,199 186.96837,198.6625 186.92971,198.25 z M 198.54926,195.21593 C 197.58643,194.25309 195,196.00762 195,197.6236 C 195,199.16251 195.17542,199.15122 197.00613,197.49445 C 198.1095,196.49591 198.80391,195.47058 198.54926,195.21593 z M 202,194.88197 C 202,194.33197 201.55,194.16008 201,194.5 C 200.45,194.83992 200,195.56803 200,196.11803 C 200,196.66803 200.45,196.83992 201,196.5 C 201.55,196.16008 202,195.43197 202,194.88197 z M 146,191.5 C 146,189.575 145.55,188 145,188 C 143.89112,188 143.61324,193.2799 144.66667,194.33333 C 145.81761,195.48428 146,195.09671 146,191.5 z M 184.76337,188.81594 C 185.42439,187.06471 185.74804,185.41471 185.48261,185.14928 C 185.21717,184.88384 185,185.21818 185,185.89235 C 185,186.56648 184.61541,186.88035 184.14536,186.58984 C 183.67531,186.29933 182.24687,187.17277 180.97105,188.53082 C 178.62682,191.02614 179.45586,192.0616 181.94718,189.75 C 183.04691,188.7296 183.18125,188.82144 182.67856,190.25 C 181.56068,193.42686 183.53575,192.06829 184.76337,188.81594 L 184.76337,188.81594 z M 169.87803,183.5 C 172.6583,180.34055 173.29614,178.94913 171.67988,179.56935 C 170.89669,179.86989 168.92377,182.00223 167.29563,184.30789 C 163.17426,190.14427 162.34175,192.06473 165.47836,188.5 C 166.9302,186.85 168.91005,184.6 169.87803,183.5 L 169.87803,183.5 z M 192.5,187 C 192.16008,186.45 191.68352,186 191.44098,186 C 191.19844,186 191,186.45 191,187 C 191,187.55 191.47656,188 192.05902,188 C 192.64148,188 192.83992,187.55 192.5,187 z M 181.83757,180.50424 C 180.67553,179.34219 178,181.31174 178,183.32921 L 178,185.44444 L 180.19444,183.25 C 181.40139,182.04306 182.1408,180.80746 181.83757,180.50424 z M 175,182.44098 C 175,182.19844 174.55,182 174,182 C 173.45,182 173,182.47656 173,183.05902 C 173,183.64148 173.45,183.83992 174,183.5 C 174.55,183.16008 175,182.68352 175,182.44098 z M 195,183.21698 C 195,182.27732 190.2987,182.36797 189.34057,183.3261 C 188.96992,183.69675 190.09167,184 191.83333,184 C 193.575,184 195,183.64764 195,183.21698 z M 229.75,148.31067 C 228.7875,148.05915 227.2125,148.05915 226.25,148.31067 C 225.2875,148.5622 226.075,148.768 228,148.768 C 229.925,148.768 230.7125,148.5622 229.75,148.31067 z M 241.8,143.8 C 242.46,143.14 243,142.22544 243,141.76765 C 243,141.30986 237.6,140.99464 231,141.06716 C 223.59063,141.14856 219,141.58947 219,142.21969 C 219,142.84876 221.30212,143.07386 225,142.80638 C 229.50898,142.48023 231,142.69887 231,143.68619 C 231,145.39069 240.11328,145.48672 241.8,143.8 z M 223.29638,138.89638 C 222.50543,138.10543 221.66964,138.09681 220.34638,138.86598 C 218.72775,139.80681 218.86389,139.94294 221.45,139.9696 C 223.60133,139.9918 224.10121,139.70122 223.29638,138.89639 L 223.29638,138.89638 z M 233,139 C 233,138.45 231.7625,138.00689 230.25,138.01531 C 228.10706,138.02721 227.83113,138.24462 229,139 C 230.95653,140.26441 233,140.26441 233,139 z M 243.5889,137.85615 C 243.97772,137.22703 244.44549,135.42703 244.62839,133.85615 C 244.9152,131.39288 244.61974,131 242.48047,131 C 241.11621,131 240,131.45 240,132 C 240,132.55 240.5625,133.00689 241.25,133.01531 C 242.10359,133.02581 242.15506,133.26361 241.41228,133.76531 C 240.81404,134.16939 240.06867,135.5125 239.7559,136.75 C 239.31953,138.47658 239.61699,139 241.0346,139 C 242.05065,139 243.20009,138.48527 243.5889,137.85615 z M 226.69499,135.58496 C 226.49608,134.98823 226.03333,134.6125 225.66667,134.75 C 225.3,134.8875 223.65,135 222,135 C 220.35,135 219,135.44676 219,135.9928 C 219,136.53884 220.81274,136.91457 223.02832,136.82776 C 225.42161,136.73396 226.90985,136.22955 226.69499,135.58496 L 226.69499,135.58496 z M 231,134.8 C 231,133.18458 230.70429,132.89571 229.88713,133.71287 C 229.27506,134.32494 229.07661,135.31494 229.44615,135.91287 C 230.48054,137.58655 231,137.21451 231,134.8 z M 237,135.5 C 237,134.66667 236.11111,134 235,134 C 232.53661,134 232.35435,135.68462 234.75,136.31067 C 235.7125,136.5622 236.6125,136.8202 236.75,136.884 C 236.8875,136.9478 237,136.325 237,135.5 z M 223.60699,132.41821 C 223.27314,131.54823 223,130.59313 223,130.29577 C 223,129.99841 222.325,130.31527 221.5,131 C 219.38554,132.75484 219.63748,134 222.10699,134 C 223.61744,134 224.04213,133.55216 223.60699,132.41821 z M 228,130.10699 C 228,129.61583 227.325,128.95496 226.5,128.63837 C 224.97572,128.05345 224.45201,129.11867 225.66667,130.33333 C 226.62236,131.28903 228,131.15539 228,130.10699 L 228,130.10699 z M 244,128.85953 C 244,128.38679 243.50186,128 242.89301,128 C 242.28417,128 242.04504,127.325 242.36163,126.5 C 242.77748,125.41631 242.2521,125 240.46862,125 C 239.11088,125 238,125.47656 238,126.05902 C 238,126.64148 238.45,126.83992 239,126.5 C 239.55,126.16008 240,126.35852 240,126.94098 C 240,127.52344 238.21412,128 236.03138,128 C 232.91457,128 232.18631,127.67805 232.63837,126.5 C 232.95496,125.675 233.86739,125 234.66601,125 C 235.46462,125 235.83992,125.45 235.5,126 C 235.16008,126.55 235.35852,127 235.94098,127 C 237.38202,127 237.27664,125.47011 235.75,124.22723 C 234.98958,123.60815 232.93333,123.51515 230.5,123.98978 C 228.3,124.4189 227.05393,124.82175 227.73095,124.885 C 228.40797,124.9482 229.24801,126.13996 229.5977,127.53324 C 230.20681,129.96014 230.52245,130.05918 237.11675,129.89277 C 240.90254,129.79727 244,129.33227 244,128.85953 z M 302,127.3 C 302,125.28901 301.71093,124.88907 300.86722,125.73278 C 300.24419,126.35581 300.00506,127.57081 300.33583,128.43278 C 301.25126,130.81836 302,130.3087 302,127.3 z M 131.57672,180.12414 C 130.92481,179.06932 129.89561,131.12602 130.10358,111.5 C 130.18518,103.8 130.30774,90.338159 130.37596,81.584799 C 130.47326,69.098463 130.79454,65.571103 131.86709,65.212434 C 133.01411,64.828867 133.11373,69.644822 132.48592,95.127635 C 132.07438,111.83244 131.7648,126.625 131.79798,128 C 131.83118,129.375 132.18182,141.8625 132.57724,155.75 C 132.97266,169.6375 133.0311,181 132.70711,181 C 132.38312,181 131.87444,180.60586 131.57672,180.12414 z M 309.89248,113.91667 C 309.69568,107.66338 309.94588,84.703533 310.3886,68.380849 C 310.91834,48.851927 312.19339,45.144559 319.22326,42.693114 C 323.18176,41.312715 320.98354,41.193201 289.68242,41.08701 C 270.67393,41.02252 256.10079,41.354058 256.40364,41.844094 C 256.69999,42.32359 268.69496,42.744383 283.05913,42.77919 C 297.4233,42.814 309.42566,43.092326 309.73103,43.397699 C 310.03641,43.703072 309.59658,44.217577 308.75364,44.541044 C 307.82146,44.898755 307.4193,45.88741 307.72714,47.064583 C 308.08416,48.429848 307.72114,49 306.49644,49 C 304.99401,49 304.81762,49.801801 305.18937,54.941322 C 305.42574,58.209049 305.28377,60.675351 304.87378,60.421993 C 304.46384,60.168635 304.09563,67.143407 304.05554,75.921485 C 303.97644,93.24804 303.60503,95.747019 301.38322,93.903079 C 300.54266,93.205482 300,93.151436 300,93.76532 C 300,94.374684 297.52003,94.638487 293.75,94.430155 C 290.3125,94.240198 282.775,93.822663 277,93.502297 C 271.225,93.181932 260.2,93.019169 252.5,93.140603 C 244.8,93.262036 231.3,93.321443 222.5,93.272617 C 170.83167,92.985941 161.60332,93.029819 152.90002,93.60354 L 143.30004,94.23637 L 142.72118,90.669276 C 142.40281,88.707374 141.47452,85.616691 140.65832,83.801091 C 139.32859,80.843179 134.26923,63.243867 132.52247,55.5 C 132.15029,53.85 131.1369,51.001036 130.27049,49.168969 C 128.72872,45.908798 128.75531,45.782214 131.52022,43.218444 L 134.34523,40.598949 L 156.65645,40.880935 L 178.96767,41.162922 L 178.88437,36.331461 C 178.83857,33.674157 179.24696,30.361708 179.79197,28.970462 C 181.17151,25.448897 188.85676,18.193982 192.67924,16.804812 C 194.4278,16.169347 196.06193,14.871284 196.31064,13.920229 C 197.2761,10.228296 218.2782,8.3072218 228.91193,10.938171 C 231.88847,11.674614 236.70839,13.531512 239.62286,15.06461 C 244.89938,17.840223 244.98788,17.85011 260.46096,17.392575 C 269.74909,17.117926 276,17.308792 276,17.867046 C 276,18.728443 262.538,20.046873 253.75,20.046147 C 249.88267,20.045828 249.17239,20.772387 251.12812,22.728119 C 251.87056,23.470562 255.54572,23.715118 261.87812,23.443456 C 267.17015,23.216426 279.6,22.772339 289.5,22.456596 C 299.4,22.140853 310.2,21.796451 313.5,21.691259 C 316.96084,21.580939 319.5,21.923193 319.5,22.5 C 319.5,23.05 317.7,23.582459 315.5,23.683242 C 285.66749,25.049883 259.06347,26.20802 257.34525,26.214858 C 255.32019,26.222958 255.26933,26.410919 256.5002,29.338301 C 258.41209,33.885345 261.56519,34.337276 286,33.566487 C 308.04749,32.871006 316.01753,32.888903 326.5,33.657437 C 329.8,33.899379 340.67355,34.187933 350.66345,34.298668 C 360.65336,34.409403 369.05112,34.725004 369.32515,35.000004 C 369.59918,35.275004 369.5813,36.760368 369.28545,38.300812 C 368.77321,40.967582 368.50226,41.092211 363.62375,40.905012 C 354.45421,40.553157 331.65332,40.986612 332.16967,41.502969 C 332.4463,41.779599 341.35056,42.280872 351.9569,42.616909 C 367.46524,43.108253 371.40272,42.96649 372.06623,41.892904 C 373.03742,40.321493 373.50255,40.690265 374.45483,43.786651 C 375.09071,45.854259 374.83919,46.071112 371.82906,46.050473 C 365.90788,46.009873 364.80425,45.984913 342.37858,45.384413 C 326.24459,44.952385 319.65808,45.112648 318.04392,45.976521 C 313.20986,48.563629 312.75088,52.158708 311.47259,97.447795 C 311.17845,107.86908 310.7268,116.60658 310.46892,116.86446 C 310.21103,117.12234 309.95165,115.79583 309.89252,113.91667 L 309.89248,113.91667 z M 301.18769,76.5 C 301.56593,68.8 302.01593,59.575 302.18769,56 L 302.5,49.5 L 293.5,49.373746 C 286.16924,49.270908 285.33462,49.396266 289,50.049623 C 291.475,50.490795 295.14495,50.885109 297.15544,50.925877 L 300.81088,51 L 300.33042,59.25 C 300.06617,63.7875 299.45949,71.692832 298.98224,76.817404 C 298.50498,81.941976 298.36253,86.781159 298.66567,87.571144 C 299.14183,88.811985 292.771,88.930817 251.85842,88.44422 C 196.34315,87.783945 153.10732,87.815638 151.97178,88.51744 C 150.53029,89.40833 146,87.090914 146,85.462648 C 146,84.589879 145.38001,81.766241 144.62224,79.187897 C 143.86447,76.609554 142.27571,71.125 141.09167,67 C 139.90762,62.875 138.43541,57.827093 137.82007,55.782428 C 137.02756,53.149037 137.01169,51.690852 137.76567,50.782428 C 138.5933,49.785222 146.38938,49.5 172.8188,49.5 C 191.51262,49.5 206.28837,49.169391 205.65379,48.765313 C 205.0192,48.361235 203.49179,48.023735 202.25954,48.015313 C 201.02728,48.006913 197.82877,47.043615 195.15173,45.8747 C 189.52471,43.41769 184.56032,36.989096 185.63094,33.545838 C 187.3694,27.95474 188.21511,26.958182 193.20624,24.619338 C 198.70876,22.040855 210.259,19.501673 212.52685,20.37193 C 213.24401,20.647129 215.10635,20.4526 216.66539,19.939647 C 218.60174,19.302548 216.22372,19.180785 209.16115,19.555404 C 201.43561,19.965189 197.50897,20.684623 193.62648,22.401647 C 183.25215,26.989667 180.15318,34.688064 186,41.347219 C 187.65,43.226465 189,45.267123 189,45.882015 C 189,46.564407 186.75967,47.040213 183.25,47.103209 C 180.0875,47.159969 169.175,47.353003 159,47.532163 C 135.59314,47.944305 136.73745,47.880076 135.17721,48.869319 C 134.10314,49.550308 134.23953,50.910692 135.90251,56.104006 C 137.02897,59.621803 138.90161,65.875 140.06394,70 C 142.31286,77.981241 144.43136,84.015141 146.33329,87.856338 L 147.5,90.212676 L 219.18511,90.374784 C 258.61192,90.463944 291.11803,90.784693 291.4209,91.087563 C 291.72377,91.390432 293.89047,91.382132 296.23578,91.069113 L 300.5,90.5 L 301.18769,76.5 z M 295.97837,86.302829 C 296.45248,85.880392 297.23676,78.52598 298.5849,61.86062 L 299.28378,53.221239 L 296.35732,52.578481 C 292.29755,51.686806 140.33418,51.332634 139.45394,52.212796 C 139.06186,52.604833 139.945,56.879833 141.41646,61.712796 C 142.88792,66.545758 144.57537,72.3 145.16635,74.5 C 145.75733,76.7 146.8117,80.075 147.5094,82 L 148.77795,85.5 L 187.13897,85.708561 C 245.32254,86.024892 266.61679,86.339054 276.5,87.026937 C 284.98125,87.617241 294.91776,87.247852 295.97837,86.302829 z M 257,83.293772 C 253.36551,81.965163 251,78.626608 251,74.825686 C 251,70.259108 252.13983,69.983256 254.91353,73.878563 C 257.14324,77.00991 260.59732,78.460568 261.6743,76.717982 C 262.04626,76.11614 261.52725,75.145886 260.52096,74.561862 C 256.21049,72.060185 252.09494,67.708749 251.50683,65.031077 C 250.11699,58.703198 255.46426,54 264.04853,54 C 267.7945,54 267.79909,54.0052 268.23427,58.75 C 268.47389,61.3625 268.35428,63.867422 267.96848,64.316492 C 267.58267,64.765563 265.74444,64.204745 263.88351,63.07023 C 259.86848,60.622469 259,60.512516 259,62.451959 C 259,63.250537 260.97086,65.259903 263.37968,66.917217 C 268.45504,70.409158 269.27773,72.002628 268.40555,76.651794 C 267.38775,82.077109 262.09821,85.157452 257,83.293772 z M 253.60417,62.270833 C 253.27187,61.938542 253.03553,62.529167 253.07895,63.583333 C 253.12695,64.748276 253.36389,64.985233 253.68311,64.1875 C 253.97198,63.465625 253.93646,62.603125 253.60421,62.270833 L 253.60417,62.270833 z M 229.53162,82.051167 C 229.18345,81.487804 229.33005,79.464198 229.85741,77.554265 C 230.98122,73.484162 229.75941,61.620004 227.99792,59.497499 C 225.96504,57.048029 227.37886,55.742079 232.04285,55.761169 C 246.49157,55.820309 245.84378,55.650373 246.57999,59.574696 C 247.51291,64.547565 245.94551,65.809451 242.17267,63.122955 C 238.34469,60.397191 236.7797,60.432174 237.18045,63.234547 C 237.41302,64.860867 238.18048,65.473301 240,65.484547 C 242.21051,65.498207 242.53488,65.977203 242.8012,69.621116 C 243.08884,73.556726 242.98756,73.720279 240.5512,73.254539 C 238.61142,72.883726 238,73.181474 238,74.496922 C 238,75.849213 238.6005,76.108459 240.75,75.684145 C 247.74564,74.303196 247.5,74.200725 247.5,78.5 L 247.5,82.5 L 238.83234,82.787732 C 233.67691,82.958872 229.90815,82.660407 229.53162,82.051167 L 229.53162,82.051167 z M 271.625,82.202254 C 271.35383,81.763494 271.5454,80.750994 272.05067,79.952254 C 272.55596,79.153514 272.96553,76.025 272.96083,73 C 272.95383,68.203406 272.56912,65.634985 270.87361,59.048721 C 270.56618,57.854513 272.27134,57.588812 280.5,57.548721 L 290.5,57.500001 L 290.81379,61.878772 C 291.12521,66.224483 291.10634,66.252339 288.31379,65.568174 C 280.92753,63.758564 280,63.738295 280,65.386501 C 280,66.512611 280.90621,67 283,67 C 285.8357,67 286,67.220105 286,71.019052 C 286,74.757794 285.83325,74.996251 283.60909,74.438025 C 280.68111,73.703147 279.28725,75.501746 281.72675,76.866959 C 283.03579,77.599534 284.35461,77.325924 286.80038,75.814352 C 288.61803,74.690984 290.35121,74.017872 290.65188,74.318548 C 290.95256,74.619224 290.88933,76.695554 290.51138,78.932616 L 289.8242,83 L 280.97112,83 C 276.10192,83 271.89617,82.641014 271.625,82.202254 L 271.625,82.202254 z M 288.98469,60.75 C 288.9723,58.930562 288.78387,58.787041 288,60 C 286.74708,61.938759 286.74708,63 288,63 C 288.55,63 288.99311,61.9875 288.98469,60.75 z M 151.10133,78.947484 C 146.64027,74.486421 145.29189,69.149492 147.13025,63.229823 C 149.09994,56.887263 153.32852,54 160.64788,54 C 163.59155,54 166,54.346317 166,54.769594 C 166,55.192871 169.2625,55.530371 173.25,55.519594 C 179.957,55.501464 180.47336,55.649792 180.14431,57.5 C 179.94869,58.6 179.72369,61.041402 179.64431,62.925339 C 179.50686,66.187785 179.66641,66.354228 183,66.425339 C 185.92129,66.487659 186.55409,66.118412 186.82713,64.192184 C 187.00705,62.922885 186.40859,60.746341 185.49722,59.35542 C 184.58586,57.964499 184.08521,56.58146 184.38467,56.281999 C 185.1998,55.466866 198,54.762275 198,55.532539 C 198,55.898401 197.2563,57.764974 196.34733,59.68048 C 194.83078,62.876374 194.82274,63.712438 196.24973,69.831609 C 197.10499,73.499224 198.1001,77.412775 198.46107,78.528389 C 199.06764,80.403008 198.64969,80.574366 192.94774,80.788794 C 187.39685,80.997541 186.85291,80.844254 187.52424,79.260405 C 189.35264,74.946711 188.6681,73.51378 184.62045,73.181909 C 181.02241,72.886902 180.77721,73.032048 181.24185,75.181909 C 181.5174,76.456859 182.07386,78.2875 182.47843,79.25 C 183.11617,80.76722 182.61209,81 178.68882,81 C 176.19996,81 173.38527,81.298681 172.43395,81.663735 C 170.94578,82.2348 170.81097,81.920659 171.46838,79.413735 C 172.72742,74.612635 172.02166,62.962628 170.31387,60.356216 C 167.95666,56.758652 166.66393,57.457418 167.27319,61.999809 C 167.9379,66.955572 166.88051,67.710832 163.14458,64.948742 C 161.55051,63.770196 159.40337,62.965839 158.37316,63.161282 C 155.79942,63.649549 155.27263,70.240886 157.53179,73.688793 C 158.98321,75.903946 159.67945,76.146974 163.03635,75.610184 C 167.89771,74.832822 168.83646,76.254488 165.59933,79.491618 C 161.80663,83.284319 155.18987,83.03598 151.10137,78.947484 L 151.10133,78.947484 z M 194.98469,69.25 C 194.97627,68.8375 194.53316,67.825 194,67 C 193.21613,65.787041 193.0277,65.930562 193.01531,67.75 C 193.00689,68.9875 193.45,70 194,70 C 194.55,70 194.99311,69.6625 194.98469,69.25 z M 157.71183,61 C 158.48524,61 158.83917,60.548783 158.49833,59.997296 C 157.44676,58.295819 153.99352,60.858391 154.06768,63.285184 L 154.13538,65.5 L 155.22051,63.25 C 155.81734,62.0125 156.93844,61 157.71185,61 L 157.71183,61 z M 193.60417,61.270833 C 193.27187,60.938542 193.03553,61.529167 193.07895,62.583333 C 193.12695,63.748276 193.36389,63.985233 193.68311,63.1875 C 193.97198,62.465625 193.93646,61.603125 193.60421,61.270833 L 193.60417,61.270833 z M 154.427,58.478529 C 155.48685,57.676704 156.16185,56.843467 155.927,56.626892 C 155.16575,55.924879 151,57.904082 151,58.967776 C 151,60.376622 152.13165,60.215065 154.427,58.478529 L 154.427,58.478529 z M 164.5884,56.255064 C 163.496,55.162665 162.74692,56.899921 163.53122,58.706872 C 164.2749,60.420238 164.32881,60.418675 164.74316,58.671732 C 164.98166,57.666184 164.91202,56.578684 164.5884,56.255065 L 164.5884,56.255064 z M 189,57.940983 C 189,57.358524 188.55,57.160081 188,57.5 C 187.45,57.839919 187,58.316476 187,58.559017 C 187,58.801558 187.45,59 188,59 C 188.55,59 189,58.523442 189,57.940983 z M 205.97016,81.75 C 205.95376,81.6125 205.76792,76.868293 205.55721,71.207318 C 205.28982,64.023976 204.69465,60.182929 203.58704,58.492502 C 202.71417,57.160327 202,55.933762 202,55.766801 C 202,55.509044 222.38344,55.638755 224.08787,55.907357 C 224.41119,55.958307 224.75437,58.078968 224.85048,60.61993 C 225.04433,65.744921 225.03635,65.74714 217.75,62.595292 L 214,60.97316 L 214,63.61158 C 214,66.009824 214.27309,66.195382 217,65.65 C 219.66267,65.117465 220.01687,65.328293 220.15,67.525 C 220.2325,68.88625 220.345,70.5625 220.4,71.25 C 220.4555,71.943333 219.38667,72.5 218,72.5 C 215.55828,72.5 215,72.965235 215,75 C 215,76.559987 220.68341,76.173736 222.35714,74.5 C 224.64266,72.214485 225,72.620118 225,77.5 L 225,82 L 215.5,82 C 210.275,82 205.98657,81.8875 205.97016,81.75 z M 207.79006,61.500804 C 207.63053,59.026246 207.10625,57.001246 206.625,57.000804 C 206.14375,57.000362 206.03125,58.40625 206.375,60.125 C 206.71875,61.84375 207,63.86875 207,64.625 C 207,65.38125 207.24303,66 207.54006,66 C 207.83709,66 207.94959,63.975362 207.79006,61.500804 z M 279,50 C 280.21296,49.216126 280.06944,49.027695 278.25,49.015313 C 277.0125,49.006891 276,49.45 276,50 C 276,51.252922 277.06124,51.252922 279,50 z M 259.68861,49.355273 C 259.33401,49.000674 256.01282,48.742782 252.30818,48.782181 C 248.60355,48.821581 245.19759,48.622116 244.73938,48.338926 C 244.28117,48.055737 244.77938,46.344189 245.84656,44.535487 C 249.19472,38.860784 249.27806,35.964153 246.22164,31.5 C 242.7723,26.461969 229.82541,19.670978 224.74064,20.232638 L 221.5,20.590598 L 224.5,21.370185 C 226.15,21.798958 230.425,23.384057 234,24.892626 C 243.47418,28.890515 246.89635,34.88201 244.02272,42.440245 C 243.05029,44.997918 239.70352,46.933106 233,48.813858 C 230.29094,49.573916 232.9839,49.818894 244.91667,49.897912 C 253.39583,49.954062 260.04321,49.709873 259.68861,49.355273 L 259.68861,49.355273 z M 267.25,49.337723 C 266.5625,49.060311 265.4375,49.060311 264.75,49.337723 C 264.0625,49.615136 264.625,49.842109 266,49.842109 C 267.375,49.842109 267.9375,49.615136 267.25,49.337723 z M 231.2765,46.522169 C 242.27713,44.77828 246.43847,37.212977 239.79933,31.027681 C 237.06739,28.482485 236.36805,28.484575 235.69981,31.039931 C 235.27406,32.668014 234.64483,32.948966 232.58318,32.431523 C 231.11726,32.0636 230,32.208523 230,32.766592 C 230,33.307466 231.29567,34.009133 232.87926,34.325851 C 234.89644,34.729289 235.95161,35.671079 236.40346,37.471371 C 237.65106,42.44221 233.27841,46.289733 228.98991,43.994597 C 224.09527,41.375069 223.93865,30.668402 228.74376,27.168123 L 231.37803,25.249191 L 224.33932,23.991305 C 220.38824,23.285207 213.61572,22.947256 208.90031,23.220895 C 200.89086,23.68569 192,26.240475 192,28.077195 C 192,28.550214 192.64021,28.69156 193.42268,28.391296 C 194.20516,28.091033 195.78016,28.780156 196.92268,29.922681 C 199.5734,32.573401 200.31033,32.55312 199.45336,29.853031 C 198.81669,27.847075 199.03606,27.741494 202.79352,28.245475 C 205.0054,28.54215 207.27376,28.326235 207.83434,27.765655 C 208.39492,27.20508 210.00466,27.035333 211.41155,27.388441 C 214.42966,28.145936 215.88012,32.234587 213.95405,34.555363 C 212.99264,35.713785 212.96556,36.365552 213.84238,37.242377 C 216.19818,39.598176 215.0943,41 210.88342,41 C 207.09441,41 206.80282,40.811829 207.2189,38.635241 C 207.68723,36.185327 205.60289,32.215493 204.65419,33.750511 C 204.3584,34.229116 204.60209,36.534169 205.19569,38.872849 C 206.54677,44.195681 205.12069,46.331697 202.36474,43.113018 C 200.11172,40.481678 199.46648,40.457366 199.27521,42.99661 C 199.10892,45.204079 200.68394,45.813717 209.25634,46.859999 C 215.7865,47.65702 225.0104,47.515507 231.2765,46.522165 L 231.2765,46.522169 z M 218.54365,41.61902 C 219.0618,38.85705 218.77967,37.959088 217.00271,36.714453 C 215.10972,35.388556 214.9851,34.886544 216.04224,32.845436 C 220.05225,25.102972 222.61025,25.254052 222.89213,33.250004 C 223.01331,36.687504 223.76216,40.496672 224.55623,41.714821 C 226.59614,44.844146 226.47272,45 221.95469,45 L 217.90937,45 L 218.54365,41.619016 L 218.54365,41.61902 z M 276.1875,45.31689 C 275.46562,45.028019 274.60312,45.063546 274.27083,45.39584 C 273.93854,45.728132 274.52917,45.964481 275.58333,45.92106 C 276.74828,45.87308 276.98523,45.636119 276.1875,45.316893 L 276.1875,45.31689 z M 142.25,43.337719 C 141.5625,43.060307 140.4375,43.060307 139.75,43.337719 C 139.0625,43.615132 139.625,43.842105 141,43.842105 C 142.375,43.842105 142.9375,43.615132 142.25,43.337719 z M 194,38.110784 C 194,35.825761 193.24186,33.285301 192.16195,31.951675 C 188.26917,27.144298 186.31225,33.821039 190.06809,39.09563 C 192.86966,43.03006 194,42.746937 194,38.110784 z M 328.73097,41.307009 C 327.758,41.053466 326.408,41.07014 325.73097,41.344059 C 325.05394,41.617982 325.85,41.825427 327.5,41.805047 C 329.15,41.784667 329.70394,41.560549 328.73097,41.307005 L 328.73097,41.307009 z M 255.43472,34.519457 C 253.58174,25.537656 241.55066,16.747482 227.05214,13.782524 C 217.55004,11.839338 213.38209,11.572754 212.58813,12.857404 C 212.29668,13.328976 215.19884,13.978105 219.03737,14.299914 C 227.8766,15.040963 240.19532,19.259095 245.15114,23.2417 C 249.60617,26.821858 252.98656,33.180597 253.0318,38.065724 C 253.0621,41.332614 253.13657,41.403468 254.56062,39.519457 C 255.53779,38.226676 255.84132,36.49038 255.43472,34.519457 z M 342.75853,38.926172 C 357.52528,38.882997 368,38.468022 368,37.926186 C 368,36.798436 368.98399,36.858733 344.5,36.486144 C 333.5,36.31875 323.15,35.909093 321.5,35.575794 C 319.85,35.242495 313.325,35.089092 307,35.234898 C 300.675,35.380704 287.0625,35.487133 276.75,35.471406 C 259.49901,35.445098 258,35.5837 258,37.205072 C 258,38.836417 259.98722,38.990436 284.75,39.278316 C 299.4625,39.449357 312.85384,39.456701 314.50853,39.294636 C 316.16323,39.132571 328.87573,38.966762 342.75853,38.926172 z M 202.25,14.337719 C 201.5625,14.060307 200.4375,14.060307 199.75,14.337719 C 199.0625,14.615132 199.625,14.842105 201,14.842105 C 202.375,14.842105 202.9375,14.615132 202.25,14.337719 z M 208.73097,13.307009 C 207.758,13.053466 206.408,13.07014 205.73097,13.344059 C 205.05394,13.617982 205.85,13.825427 207.5,13.805047 C 209.15,13.784667 209.70394,13.560549 208.73097,13.307005 L 208.73097,13.307009 z M 13,79 C 13,78.45 13.45,78 14,78 C 14.55,78 15,78.45 15,79 C 15,79.55 14.55,80 14,80 C 13.45,80 13,79.55 13,79 z M 14,74 C 14,73.45 14.675,73 15.5,73 C 16.325,73 17,73.45 17,74 C 17,74.55 16.325,75 15.5,75 C 14.675,75 14,74.55 14,74 z M 38.75,42.25074 C 37.7875,42.032176 37,41.472165 37,41.00627 C 37,38.69116 65.980267,38.416185 66.744193,40.724046 C 67.05066,41.649901 64.122788,41.917322 54.725558,41.821783 C 47.892465,41.752313 41.896358,41.909823 41.400876,42.171801 C 40.905394,42.433781 39.7125,42.469303 38.75,42.25074 z M 27.730968,41.344063 C 28.408001,41.07014 29.758001,41.053466 30.730968,41.307013 C 31.703936,41.560553 31.15,41.784672 29.5,41.805051 C 27.85,41.825431 27.053936,41.617986 27.730968,41.344063 z M 118.5,37.979155 C 67.822711,37.161851 70,37.247228 70,36.077335 C 70,35.521714 86.608529,35.32408 111.75,35.580528 C 171.00953,36.184987 173,36.236466 173,37.164625 C 173,37.624081 172.2125,38.022867 171.25,38.050817 C 170.2875,38.078767 167.7,38.23011 165.5,38.387138 C 163.3,38.544166 142.15,38.360578 118.5,37.979155 z M 159.95989,32.750434 C 156.95695,32.338172 149.1,32.106077 142.5,32.234667 C 120.27745,32.667637 75,31.754603 75,30.873509 C 75,30.000213 82.999013,29.824099 114,30.014848 C 151.74746,30.247108 172.26582,30.865819 173.19997,31.799967 C 174.55142,33.151423 166.88796,33.701561 159.95989,32.750434 z M 344,30.873858 C 342.46534,30.260379 329.72291,29.989814 311,30.173157 C 277.19175,30.504222 262.20111,30.134427 261.46991,28.951316 C 261.20311,28.519626 274.82574,28.24148 291.74241,28.333213 C 308.65909,28.424943 327.53665,28.343873 333.69255,28.153058 C 342.2465,27.887906 345.36864,28.144758 346.93619,29.242753 C 348.06429,30.032903 348.69014,30.976527 348.32697,31.339695 C 347.50648,32.160188 347.11147,32.117662 344,30.873858 L 344,30.873858 z M 351.70885,31.375516 C 350.20041,29.867078 351.11882,28.880827 353.75,29.183578 C 355.2625,29.35761 356.5,29.95 356.5,30.5 C 356.5,31.694833 352.71908,32.385744 351.70885,31.375516 z M 358,30.522228 C 358,29.461221 359.45318,29.209299 364.25,29.43873 C 372.03827,29.811243 372,29.803878 372,30.930208 C 372,31.441822 368.85,31.870371 365,31.882539 C 359.69835,31.899299 358,31.569254 358,30.522228 L 358,30.522228 z M 108.04081,26.850299 C 97.667528,26.334182 90.159207,25.531276 89.540813,24.871992 C 88.779129,24.059944 93.863674,23.960142 108.5,24.49985 C 119.5,24.905471 137.36654,25.29798 148.20342,25.372094 C 161.92704,25.465944 168.26752,25.867524 169.09528,26.695279 C 170.53335,28.133349 135.61061,28.22202 108.04081,26.850299 L 108.04081,26.850299 z M 323.07895,21.583333 C 323.03555,20.529167 323.27188,19.938542 323.60417,20.270833 C 323.93646,20.603125 323.97198,21.465625 323.68307,22.1875 C 323.36385,22.985233 323.12689,22.748276 323.07891,21.583333 L 323.07895,21.583333 z" style="fill:#000000"/>
  </g>
  <g inkscape:groupmode="layer" id="layer2" inkscape:label="trace" transform="translate(68.92952,-322.93903)"/>
  <metadata>
    <rdf:RDF>
      <cc:Work>
        <dc:format>image/svg+xml</dc:format>
        <dc:type rdf:resource="http://purl.org/dc/dcmitype/StillImage"/>
        <cc:license rdf:resource="http://creativecommons.org/licenses/publicdomain/"/>
        <dc:publisher>
          <cc:Agent rdf:about="http://openclipart.org/">
            <dc:title>Open Clip Art Library</dc:title>
          </cc:Agent>
        </dc:publisher>
        <dc:title>Cheese Shop</dc:title>
        <dc:date>2009-09-24T22:50:03</dc:date>
        <dc:description>Cheese Shop&#13;\n&#13;\nblack and white trace&#13;\nFROM: The Complete Book of Cheese &#13;\nby Robert Carlton Brown&#13;\nGutenberg EText-No.   14293</dc:description>
        <dc:source>http://openclipart.org/detail/27516/cheese-shop-by-tom</dc:source>
        <dc:creator>
          <cc:Agent>
            <dc:title>tom</dc:title>
          </cc:Agent>
        </dc:creator>
        <dc:subject>
          <rdf:Bag>
            <rdf:li>cheese</rdf:li>
            <rdf:li>cheese</rdf:li>
            <rdf:li>clip art</rdf:li>
            <rdf:li>clipart</rdf:li>
            <rdf:li>externalsource</rdf:li>
            <rdf:li>image</rdf:li>
            <rdf:li>media</rdf:li>
            <rdf:li>public domain</rdf:li>
            <rdf:li>shop</rdf:li>
            <rdf:li>shop</rdf:li>
            <rdf:li>shopfront</rdf:li>
            <rdf:li>shopfront</rdf:li>
            <rdf:li>store</rdf:li>
            <rdf:li>store</rdf:li>
            <rdf:li>svg</rdf:li>
            <rdf:li>window</rdf:li>
            <rdf:li>window</rdf:li>
          </rdf:Bag>
        </dc:subject>
      </cc:Work>
      <cc:License rdf:about="http://creativecommons.org/licenses/publicdomain/">
        <cc:permits rdf:resource="http://creativecommons.org/ns#Reproduction"/>
        <cc:permits rdf:resource="http://creativecommons.org/ns#Distribution"/>
        <cc:permits rdf:resource="http://creativecommons.org/ns#DerivativeWorks"/>
      </cc:License>
    </rdf:RDF>
  </metadata>
</svg>
