<?xml version="1.0" encoding="utf-8"?>
<!-- Generator: Adobe Illustrator 13.0.1, SVG Export Plug-In . SVG Version: 6.00 Build 14948)  -->
<!DOCTYPE svg PUBLIC "-//W3C//DTD SVG 1.1//EN" "http://www.w3.org/Graphics/SVG/1.1/DTD/svg11.dtd">
<svg version="1.1" id="Layer_1" xmlns="http://www.w3.org/2000/svg" xmlns:xlink="http://www.w3.org/1999/xlink" x="0px" y="0px"
	 width="292.434px" height="77.972px" viewBox="281.111 125.333 292.434 77.972"
	 enable-background="new 281.111 125.333 292.434 77.972" xml:space="preserve">
<g>
	<g>
		
			<linearGradient id="SVGID_1_" gradientUnits="userSpaceOnUse" x1="324.4678" y1="148.2441" x2="299.6982" y2="148.2441" gradientTransform="matrix(1 0 0 -1 0 327.7158)">
			<stop  offset="0" style="stop-color:#C1E0F6"/>
			<stop  offset="1" style="stop-color:#64B3E3"/>
		</linearGradient>
		<polygon opacity="0.8" fill="url(#SVGID_1_)" stroke="#79C3EC" stroke-miterlimit="10" enable-background="new    " points="
			299.699,156.575 324.468,171.37 324.468,202.37 299.699,185.827 		"/>
		
			<linearGradient id="SVGID_2_" gradientUnits="userSpaceOnUse" x1="340.6675" y1="128.2026" x2="333.5999" y2="168.285" gradientTransform="matrix(1 0 0 -1 0 327.7158)">
			<stop  offset="0" style="stop-color:#C1E0F6"/>
			<stop  offset="1" style="stop-color:#64B3E3"/>
		</linearGradient>
		<polygon opacity="0.8" fill="url(#SVGID_2_)" stroke="#79C3EC" stroke-miterlimit="10" enable-background="new    " points="
			349.799,185.94 349.799,156.575 324.527,171.715 324.468,202.37 		"/>
		
			<linearGradient id="SVGID_3_" gradientUnits="userSpaceOnUse" x1="282.0049" y1="172.1704" x2="367.0488" y2="172.1704" gradientTransform="matrix(1 0 0 -1 0 327.7158)">
			<stop  offset="0" style="stop-color:#C1E0F6"/>
			<stop  offset="1" style="stop-color:#64B3E3"/>
		</linearGradient>
		<polygon opacity="0.9" fill="url(#SVGID_3_)" stroke="#79C3EC" stroke-miterlimit="10" enable-background="new    " points="
			324.694,140.425 341.95,125.957 367.049,141.994 350.578,155.72 367.049,169.838 341.557,185.132 324.694,172.191 307.83,185.132 
			282.005,169.838 299.789,156.308 282.005,142.778 307.83,125.957 		"/>
		
			<linearGradient id="SVGID_4_" gradientUnits="userSpaceOnUse" x1="328.9409" y1="160.0913" x2="310.805" y2="180.9543" gradientTransform="matrix(1 0 0 -1 0 327.7158)">
			<stop  offset="0" style="stop-color:#ECF8FE"/>
			<stop  offset="1" style="stop-color:#C7EAFA"/>
		</linearGradient>
		<polygon opacity="0.7" fill="url(#SVGID_4_)" enable-background="new    " points="300.096,156.07 324.749,141.175 
			324.527,171.46 		"/>
		
			<linearGradient id="SVGID_5_" gradientUnits="userSpaceOnUse" x1="324.5273" y1="171.3989" x2="349.1084" y2="171.3989" gradientTransform="matrix(1 0 0 -1 0 327.7158)">
			<stop  offset="0" style="stop-color:#ECF8FE"/>
			<stop  offset="1" style="stop-color:#C7EAFA"/>
		</linearGradient>
		<polygon opacity="0.7" fill="url(#SVGID_5_)" enable-background="new    " points="324.749,141.175 349.108,155.172 
			324.527,171.46 		"/>
	</g>
	<g>
		
			<linearGradient id="SVGID_6_" gradientUnits="userSpaceOnUse" x1="424.9131" y1="142.9692" x2="426.0283" y2="174.9048" gradientTransform="matrix(1 0 0 -1 0 327.7158)">
			<stop  offset="0.5399" style="stop-color:#000000"/>
			<stop  offset="0.6406" style="stop-color:#0F0F0F"/>
			<stop  offset="0.8343" style="stop-color:#373737"/>
			<stop  offset="1" style="stop-color:#5E5E5E"/>
		</linearGradient>
		<path fill="url(#SVGID_6_)" stroke="#000000" stroke-width="0.5" stroke-miterlimit="10" d="M417.627,184.493h8.74v-18.614
			c0,0,1.009-4.54,4.203-4.54h3.528v-8.235c0,0-6.723-0.841-8.235,7.06l-1.177,0.167l-0.336-6.388l-6.723-0.168V184.493z"/>
		<g>
			
				<linearGradient id="SVGID_7_" gradientUnits="userSpaceOnUse" x1="446.2827" y1="142.0347" x2="447.4627" y2="175.8256" gradientTransform="matrix(1 0 0 -1 0 327.7158)">
				<stop  offset="0.5399" style="stop-color:#000000"/>
				<stop  offset="0.6406" style="stop-color:#0F0F0F"/>
				<stop  offset="0.8343" style="stop-color:#373737"/>
				<stop  offset="1" style="stop-color:#5E5E5E"/>
			</linearGradient>
			<path fill="url(#SVGID_7_)" stroke="#000000" stroke-width="0.5" stroke-miterlimit="10" d="M446.875,151.876
				c-7.334,0-13.28,7.57-13.28,16.909c0,9.338,5.946,16.909,13.28,16.909c7.333,0,13.276-7.571,13.276-16.909
				C460.151,159.447,454.208,151.876,446.875,151.876z M446.875,180.333c-2.322,0-4.203-5.04-4.203-11.261
				s1.881-11.261,4.203-11.261c2.318,0,4.2,5.041,4.2,11.261C451.075,175.291,449.193,180.333,446.875,180.333z"/>
		</g>
		<g>
			
				<linearGradient id="SVGID_8_" gradientUnits="userSpaceOnUse" x1="533.855" y1="140.8325" x2="535.035" y2="174.6254" gradientTransform="matrix(1 0 0 -1 0 327.7158)">
				<stop  offset="0.5399" style="stop-color:#000000"/>
				<stop  offset="0.6406" style="stop-color:#0F0F0F"/>
				<stop  offset="0.8343" style="stop-color:#373737"/>
				<stop  offset="1" style="stop-color:#5E5E5E"/>
			</linearGradient>
			<path fill="url(#SVGID_8_)" stroke="#000000" stroke-width="0.5" stroke-miterlimit="10" d="M534.443,153.077
				c-7.333,0-13.276,7.57-13.276,16.911c0,9.337,5.943,16.909,13.276,16.909c7.334,0,13.279-7.572,13.279-16.909
				C547.722,160.647,541.777,153.077,534.443,153.077z M534.443,181.535c-2.318,0-4.2-5.044-4.2-11.263s1.882-11.261,4.2-11.261
				c2.32,0,4.204,5.042,4.204,11.261S536.763,181.535,534.443,181.535z"/>
		</g>
		<g>
			
				<linearGradient id="SVGID_9_" gradientUnits="userSpaceOnUse" x1="475.3853" y1="131.9917" x2="476.8781" y2="174.741" gradientTransform="matrix(1 0 0 -1 0 327.7158)">
				<stop  offset="0.5399" style="stop-color:#000000"/>
				<stop  offset="0.6406" style="stop-color:#0F0F0F"/>
				<stop  offset="0.8343" style="stop-color:#373737"/>
				<stop  offset="1" style="stop-color:#5E5E5E"/>
			</linearGradient>
			<path fill="url(#SVGID_9_)" stroke="#000000" stroke-width="0.5" stroke-miterlimit="10" d="M488.646,168.83
				c0,0,0.505-14.559-8.237-15.708c0,0-4.873-0.816-8.403,4.565l-0.504-4.565h-7.229v42.215h7.396v-12.943
				c0,0,4.707,3.16,5.547,3.346c0.839,0.185,3.192,0,3.192,0S490.16,183.501,488.646,168.83z M476.539,181.003
				c-2.552,0-4.621-5.05-4.621-11.281c0-6.232,2.067-11.282,4.621-11.282s4.624,5.05,4.624,11.282
				C481.163,175.954,479.092,181.003,476.539,181.003z"/>
		</g>
		<g>
			
				<linearGradient id="SVGID_10_" gradientUnits="userSpaceOnUse" x1="505.2163" y1="798.3726" x2="506.6982" y2="755.9365" gradientTransform="matrix(1 0 0 1 0 -612.5996)">
				<stop  offset="0.5399" style="stop-color:#000000"/>
				<stop  offset="0.6406" style="stop-color:#0F0F0F"/>
				<stop  offset="0.8343" style="stop-color:#373737"/>
				<stop  offset="1" style="stop-color:#5E5E5E"/>
			</linearGradient>
			<path fill="url(#SVGID_10_)" stroke="#000000" stroke-width="0.5" stroke-miterlimit="10" d="M510.38,152.742
				c0,0-2.486-0.187-3.376,0c-0.89,0.184-5.867,3.344-5.867,3.344v-12.943h-7.82v42.215h7.646l0.531-4.563
				c3.733,5.378,8.886,4.563,8.886,4.563c9.243-1.151,8.71-15.706,8.71-15.706C520.687,154.976,510.38,152.742,510.38,152.742z
				 M511.174,168.756c0,6.23-2.188,11.282-4.889,11.282c-2.698,0-4.885-5.052-4.885-11.282c0-6.233,2.187-11.283,4.885-11.283
				C508.988,157.474,511.174,162.523,511.174,168.756z"/>
		</g>
		
			<linearGradient id="SVGID_11_" gradientUnits="userSpaceOnUse" x1="560.061" y1="142.8945" x2="561.1598" y2="174.3578" gradientTransform="matrix(1 0 0 -1 0 327.7158)">
			<stop  offset="0.5399" style="stop-color:#000000"/>
			<stop  offset="1" style="stop-color:#5E5E5E"/>
		</linearGradient>
		<polygon fill="url(#SVGID_11_)" stroke="#000000" stroke-width="0.5" stroke-miterlimit="10" points="573.103,153.775 
			565.202,153.775 560.979,160.892 557.302,153.775 548.648,153.775 556.5,168.439 547.049,184.367 554.781,184.367 
			560.193,175.331 565.034,184.367 573.103,184.367 564.62,167.94 		"/>
		
			<linearGradient id="SVGID_12_" gradientUnits="userSpaceOnUse" x1="398.8491" y1="143.147" x2="397.3949" y2="184.7901" gradientTransform="matrix(1 0 0 -1 0 327.7158)">
			<stop  offset="0.5399" style="stop-color:#000000"/>
			<stop  offset="0.6406" style="stop-color:#0F0F0F"/>
			<stop  offset="0.8343" style="stop-color:#373737"/>
			<stop  offset="1" style="stop-color:#5E5E5E"/>
		</linearGradient>
		<path fill="url(#SVGID_12_)" stroke="#000000" stroke-width="0.5" stroke-miterlimit="10" d="M412.844,158.106
			c0.011-1.62-0.201-3.199-0.668-4.707c-0.259-1.021-0.579-1.8-0.945-2.277c-1.726-3.221-4.975-5.951-10.432-7.726h-16.892v41.096
			h16.892c0,0,0.006-0.007,0.008-0.007c0.031,0,0.063,0.007,0.093,0.007c5.98,0,10.9-7.159,11.604-16.391
			c0.146-1.164,0.263-2.391,0.338-3.664C412.975,162.16,412.967,160.008,412.844,158.106z M404.195,163.946
			c-0.657,11.345-6.403,14.873-6.403,14.873h-5.295v-29.75h5.849C400.159,149.323,404.853,152.598,404.195,163.946z"/>
	</g>
</g>
</svg>
